<svg height='100px' width='100px'  xmlns="http://www.w3.org/2000/svg" xmlns:xlink="http://www.w3.org/1999/xlink" version="1.1" x="0px" y="0px" viewBox="0 0 100 100" enable-background="new 0 0 100 100" xml:space="preserve"><path d="M50.047,99.601c-27.306,0-49.521-22.212-49.521-49.521c0-18.929,11.074-36.458,28.214-44.65  c1.217-0.58,2.64-0.569,3.849,0.04c1.206,0.608,2.065,1.741,2.324,3.066c0.415,2.139,2.085,7.112,8.58,7.112  c4.537,0,6.696-2.453,7.705-4.517c0.905-1.838,2.969-2.811,4.967-2.316c1.995,0.495,3.378,2.305,3.323,4.359  c-0.085,3.344,0.842,6.343,2.483,8.033c2.176,2.23,5.94,2.379,10.952,0.581c1.832-0.66,3.88-0.023,5.016,1.559  c1.142,1.576,1.099,3.716-0.103,5.251c-1.906,2.436-2.086,6.014-0.467,9.335c1.923,3.949,5.775,6.305,10.304,6.305  c1.951,0,3.676-0.421,5.273-1.28c1.31-0.705,2.879-0.701,4.182,0.011c1.3,0.717,2.148,2.042,2.253,3.521l0.04,0.541  c0.074,1.013,0.146,2.019,0.146,3.049C99.567,77.389,77.354,99.601,50.047,99.601z M28.271,15.665  C16.59,23.079,9.266,36.118,9.266,50.08c0,22.49,18.294,40.782,40.781,40.782c21.588,0,39.313-16.864,40.697-38.108  c-1.003,0.148-2.025,0.223-3.07,0.223c-7.831,0-14.789-4.296-18.161-11.213c-1.59-3.267-2.216-6.731-1.908-10.021  c-0.248,0.006-0.491,0.012-0.734,0.012h-0.002c-4.461,0-8.316-1.542-11.154-4.449c-1.385-1.429-2.51-3.175-3.335-5.149  c-2.568,1.457-5.583,2.23-8.886,2.23C36.768,24.387,31.232,21.099,28.271,15.665z"></path><path d="M95.928,10.027c0,2.014-1.632,3.641-3.643,3.641c-2.012,0-3.641-1.627-3.641-3.641  c0-2.008,1.629-3.641,3.641-3.641C94.296,6.386,95.928,8.019,95.928,10.027z"></path><circle cx="28.686" cy="39.356" r="6.19"></circle><circle cx="33.175" cy="63.672" r="6.19"></circle><circle cx="55.873" cy="71.444" r="6.19"></circle><circle cx="53.093" cy="46.723" r="6.19"></circle><path d="M78.326,7.604c0,3.146-2.554,5.7-5.704,5.7c-3.148,0-5.702-2.554-5.702-5.7c0-3.152,2.554-5.707,5.702-5.707  C75.772,1.896,78.326,4.452,78.326,7.604z"></path><circle cx="93.014" cy="29.325" r="4.006"></circle></svg>