<svg height='100px' width='100px' xmlns="http://www.w3.org/2000/svg" xmlns:xlink="http://www.w3.org/1999/xlink" version="1.1" x="0px" y="0px" viewBox="0 0 20 20" enable-background="new 0 0 20 20" xml:space="preserve"><path d="M19.5,2.4c-2.8-1.8-6.6-1.9-9.5-0.3C7.1,0.5,3.3,0.6,0.5,2.4L0,2.7V19l1.5-1c2.4-1.5,5.6-1.5,7.9,0l0.5,0.3  l0.5-0.3c2.4-1.5,5.6-1.5,7.9,0l1.5,1V2.7L19.5,2.4z M2,15.5V3.9c2.2-1.2,4.8-1.1,7,0v11.7c-1.1-0.4-2.3-0.7-3.5-0.7  C4.3,14.9,3.1,15.1,2,15.5z M18,15.5c-2.2-0.9-4.8-0.9-7,0V3.9c2.2-1.2,4.9-1.2,7,0V15.5z"></path></svg>