<?xml version="1.0" standalone="no"?>
<!DOCTYPE svg PUBLIC "-//W3C//DTD SVG 1.1//EN" "http://www.w3.org/Graphics/SVG/1.1/DTD/svg11.dtd">
<svg xmlns="http://www.w3.org/2000/svg">
<defs >
<font id="Spartan" horiz-adv-x="1346" ><font-face
    font-family="Spartan Thin ExtraLight"
    units-per-em="2000"
    panose-1="0 0 0 0 0 0 0 0 0 0"
    ascent="1720"
    descent="-520"
    alphabetic="0" />
<glyph unicode=" " horiz-adv-x="503" />
<glyph unicode="!" horiz-adv-x="715" d="M325 350L322 1720H394L391 350H325ZM358 -32Q341 -32 328 -24T306 -2T297 28Q297 45 305 58T327 80T358 88Q374 88 387 80T409 59T418 28Q418 12 410 -2T388 -24T358 -32Z" />
<glyph unicode="&quot;" horiz-adv-x="788" d="M443 1340L428 1652H519L504 1340H443ZM285 1340L269 1652H361L345 1340H285Z" />
<glyph unicode="#" horiz-adv-x="1389" d="M336 0L394 416H214V467H402L466 918H214V969H471L529 1387H581L523 969H943L1001 1387H1053L995 969H1175V918H987L923 467H1175V416H918L860 0H808L866 416H446L388 0H336ZM451 467H874L936 918H515L451 467Z" />
<glyph unicode="$" horiz-adv-x="1506" d="M753 -276V-30Q674 -30 591 -1T433 79T305 191T232 319L286 360Q324 266 400 194T575 82T779 42Q893 42 984 88T1130 219T1184 418Q1184 516 1145 583T1040 696T893 778T725 846Q620 886 531 935T388 1059T333 1255Q333
1374 388 1469T538 1621T753 1679V1926H811V1678Q926 1668 1024 1604T1165 1446L1112 1403Q1073 1493 976 1551T763 1609Q659 1609 578 1561T451 1433T404 1257Q404 1153 456 1088T592 983T768 906Q866 868 954 828T1111 735T1219 606T1259 421Q1259 295 1204 197T1047
41T811 -27V-276H753Z" />
<glyph unicode="%" horiz-adv-x="2252" d="M627 892Q514 892 424 942T281 1081T228 1286Q228 1402 280 1491T423 1630T627 1680Q739 1680 828 1630T971 1491T1024 1286Q1024 1170 971 1081T829 942T627 892ZM607 0L1567 1650H1637L677 0H607ZM627 956Q721 956
794 998T911 1114T954 1286Q955 1384 912 1458T795 1574T627 1616Q532 1616 459 1574T343 1458T300 1286Q300 1189 342 1115T458 998T627 956ZM1625 -32Q1513 -32 1423 18T1280 157T1226 362Q1226 478 1279 567T1423 706T1625 756Q1738 756 1828 706T1972 567T2025
362Q2025 246 1972 157T1829 18T1625 -32ZM1625 32Q1720 32 1794 74T1910 190T1952 362Q1952 459 1910 533T1794 650T1625 693Q1532 693 1458 651T1342 534T1299 362Q1299 265 1341 191T1458 74T1625 32Z" />
<glyph unicode="&amp;" horiz-adv-x="1781" d="M699 -32Q575 -32 469 19T298 169T233 411Q233 581 333 713T626 940Q536 1025 483 1090T406 1215T383 1337Q383 1437 430 1514T558 1635T740 1680Q816 1680 880 1655T993 1582T1067 1471T1093 1327Q1093 1187 1004
1097T739 924L1256 360Q1276 383 1304 422T1362 505T1414 582T1442 630L1493 600Q1461 536 1408 454T1304 308L1581 0H1488L1255 260Q1132 118 990 43T699 -32ZM700 37Q833 37 962 107T1209 312L672 893Q492 806 399 685T306 413Q306 293 361 209T506 81T700 37ZM691
972Q797 1022 872 1071T986 1181T1026 1330Q1026 1417 988 1481T885 1581T741 1616Q659 1616 594 1580T492 1481T454 1336Q454 1282 474 1232T546 1121T691 972Z" />
<glyph unicode="&apos;" horiz-adv-x="630" d="M285 1340L269 1652H361L345 1340H285Z" />
<glyph unicode="(" horiz-adv-x="758" d="M566 -520Q503 -442 437 -328T315 -69T225 248T190 614Q190 808 224 980T315 1297T437 1557T566 1750L616 1728Q535 1606 456 1438T325 1063T273 614Q273 368 326 159T459 -216T616 -498L566 -520Z" />
<glyph unicode=")" horiz-adv-x="758" d="M192 -520L142 -498Q252 -333 329 -151T445 225T484 614Q484 800 447 990T335 1367T142 1728L192 1750Q374 1518 470 1225T566 615Q566 311 474 17T192 -520Z" />
<glyph unicode="*" horiz-adv-x="887" d="M347 1370L320 1390L414 1523L259 1573L270 1606L425 1557V1720H462V1557L617 1606L628 1573L472 1523L567 1390L540 1370L442 1501L347 1370Z" />
<glyph unicode="+" horiz-adv-x="1471" d="M703 316V795H223V861H703V1340H768V861H1247V795H768V316H703Z" />
<glyph unicode="," horiz-adv-x="713" d="M322 -199L306 -184Q320 -164 329 -141T344 -91T350 -31Q327 -29 311 -12T294 28Q294 55 311 71T355 88Q384 88 403 68T423 8Q423 -47 392 -108T322 -199Z" />
<glyph unicode="-" horiz-adv-x="1105" d="M231 547V613H875V547H231Z" />
<glyph unicode="." horiz-adv-x="741" d="M370 -32Q354 -32 340 -24T318 -2T310 28Q310 45 318 58T340 80T370 88Q387 88 400 80T422 59T430 28Q430 12 422 -2T401 -24T370 -32Z" />
<glyph unicode="/" horiz-adv-x="1053" d="M86 -240L910 1720H967L143 -240H86Z" />
<glyph unicode="0" horiz-adv-x="1735" d="M867 -32Q666 -32 516 75T281 375T197 824Q197 1081 281 1273T515 1573T867 1680Q1068 1680 1219 1573T1454 1274T1538 824Q1538 568 1455 375T1220 75T867 -32ZM867 40Q1044 40 1176 138T1381 412T1455 824Q1455 1059
1382 1235T1176 1510T867 1608Q692 1608 559 1510T353 1236T279 824Q279 589 352 413T559 138T867 40Z" />
<glyph unicode="1" horiz-adv-x="644" d="M289 0V1573H172V1650H367V0H289Z" />
<glyph unicode="2" horiz-adv-x="1454" d="M152 0V30Q397 224 572 370T863 629T1045 829T1140 992T1168 1143Q1168 1271 1107 1374T943 1539T715 1600Q591 1600 489 1539T324 1374T259 1143L180 1153Q183 1263 225 1358T340 1526T510 1639T717 1680Q864 1680 985
1609T1180 1416T1253 1141Q1253 1061 1228 984T1142 821T978 629T716 390T339 80H1283V0H152Z" />
<glyph unicode="3" horiz-adv-x="1334" d="M652 -32Q507 -32 396 22T220 175T153 402L231 413Q231 304 285 222T435 93T651 47Q831 47 938 146T1045 404Q1045 516 993 607T853 753T660 808Q625 808 600 802V872H647Q758 872 845 923T984 1060T1035 1249Q1035 1350
986 1431T856 1560T678 1608Q580 1608 498 1560T368 1431T318 1250L246 1260Q249 1381 307 1475T463 1625T678 1680Q800 1680 898 1622T1055 1467T1114 1250Q1114 1157 1077 1074T974 929T821 839Q905 819 975 760T1087 612T1130 409Q1130 283 1074 184T911 26T652
-32Z" />
<glyph unicode="4" horiz-adv-x="1322" d="M912 0V324H83V378L911 1650H988V393H1180V324H988V0H912ZM176 393H912V1536L176 393Z" />
<glyph unicode="5" horiz-adv-x="1488" d="M732 -32Q598 -32 482 12T281 136T155 326L218 358Q276 207 415 121T738 34Q887 34 999 92T1175 257T1239 513Q1239 671 1169 787T980 966T713 1029Q575 1029 453 970T230 794L363 1650H1205V1581H424L324 941Q499 1092
743 1086Q909 1083 1036 1011T1237 811T1311 511Q1311 327 1230 207T1017 27T732 -32Z" />
<glyph unicode="6" horiz-adv-x="1474" d="M733 -32Q600 -32 496 14T320 138T209 314T171 514Q171 627 213 739T322 930L926 1650H1021L500 1028Q563 1061 626 1079T757 1097Q867 1097 965 1056T1140 938T1259 757T1303 528Q1303 365 1230 239T1027 40T733 -32ZM733
37Q876 37 988 101T1164 275T1229 528Q1229 672 1164 784T990 962T746 1027Q609 1027 496 960T314 778T246 521Q246 391 306 281T475 104T733 37Z" />
<glyph unicode="7" horiz-adv-x="1242" d="M145 0L996 1581H148V1650H1108V1618L236 0H145Z" />
<glyph unicode="8" horiz-adv-x="1360" d="M680 -32Q537 -32 426 29T251 196T187 433Q187 584 273 702T505 873Q387 924 318 1028T248 1262Q248 1380 304 1474T457 1624T680 1680Q772 1680 851 1649T988 1560T1079 1427T1112 1262Q1112 1132 1043 1028T855 873Q1001
821 1087 703T1173 433Q1173 302 1110 197T935 30T680 -32ZM680 38Q801 38 893 90T1039 233T1092 435Q1092 550 1038 640T891 781T680 833Q564 833 471 782T324 642T269 436Q269 323 321 233T467 91T680 38ZM680 908Q783 908 863 953T990 1079T1037 1260Q1037 1362
990 1442T863 1569T680 1615Q579 1615 498 1569T370 1443T323 1260Q323 1159 369 1079T497 954T680 908Z" />
<glyph unicode="9" horiz-adv-x="1474" d="M452 0L988 637Q875 553 733 553Q614 553 512 596T333 716T214 897T171 1122Q171 1283 244 1409T446 1607T739 1680Q903 1680 1030 1608T1230 1409T1303 1121Q1303 1066 1293 1013T1263 908T1216 810T1152 720L548 0H452ZM740
628Q839 628 926 667T1080 774T1185 931T1223 1123Q1223 1263 1161 1372T990 1543T740 1606Q599 1606 488 1543T313 1371T249 1123Q249 983 314 871T490 693T740 628Z" />
<glyph unicode=":" horiz-adv-x="709" d="M354 991Q338 991 324 999T302 1021T294 1051Q294 1068 302 1081T324 1103T354 1111Q370 1111 384 1103T406 1082T414 1051Q414 1035 406 1021T384 999T354 991ZM354 -32Q338 -32 324 -24T302 -2T294 28Q294 45 302 58T324
80T354 88Q370 88 384 80T406 59T414 28Q414 12 406 -2T384 -24T354 -32Z" />
<glyph unicode=";" horiz-adv-x="707" d="M354 991Q338 991 324 999T302 1021T294 1051Q294 1068 302 1081T324 1103T354 1111Q370 1111 384 1103T406 1082T414 1051Q414 1035 406 1021T384 999T354 991ZM322 -199L306 -184Q320 -164 329 -141T344 -91T350 -31Q327
-29 311 -12T294 28Q294 55 311 71T355 88Q384 88 403 68T423 8Q423 -47 392 -108T322 -199Z" />
<glyph unicode="&lt;" horiz-adv-x="1543" d="M1311 270L217 807V857L1311 1394V1325L299 832L1311 339V270Z" />
<glyph unicode="=" horiz-adv-x="1715" d="M345 983V1049H1370V983H345ZM345 610V675H1370V610H345Z" />
<glyph unicode="&gt;" horiz-adv-x="1543" d="M231 270V339L1244 832L231 1325V1394L1325 857V807L231 270Z" />
<glyph unicode="?" horiz-adv-x="1385" d="M634 -32Q618 -32 605 -24T583 -2T574 28Q574 45 582 58T604 80T634 88Q651 88 664 80T686 59T695 28Q695 12 687 -2T665 -24T634 -32ZM601 381V762Q619 760 631 759T660 757Q785 757 884 808T1041 955T1099 1189Q1099
1320 1046 1414T898 1557T681 1607Q493 1607 380 1493T265 1185L194 1189Q195 1349 261 1458T436 1624T675 1680Q821 1680 933 1615T1110 1439T1174 1187Q1174 1051 1113 939T938 759T670 691V381H601Z" />
<glyph unicode="@" horiz-adv-x="2168" d="M1085 -339Q902 -339 750 -274T485 -92T312 179T251 510Q251 693 315 850T494 1124T763 1307T1094 1373Q1247 1373 1394 1322T1660 1167T1850 908T1921 544Q1921 470 1909 394T1870 253T1798 149T1687 109Q1616 109 1564
151T1492 249Q1432 119 1315 43T1047 -34Q905 -34 791 34T611 222T544 499Q544 656 610 776T791 965T1048 1034Q1197 1034 1314 958T1491 754V1003H1558V356Q1558 294 1576 253T1624 190T1690 169Q1743 169 1780 214T1838 341T1859 530Q1859 725 1796 870T1624
1112T1382 1257T1105 1305Q942 1305 801 1246T553 1081T386 830T326 515Q326 354 380 212T536 -38T776 -208T1086 -270Q1287 -270 1435 -187T1670 15L1734 -20Q1665 -116 1567 -188T1347 -299T1085 -339ZM1054 29Q1182 29 1282 89T1439 255T1496 499Q1496 638 1439
744T1282 911T1054 972Q926 972 826 912T669 745T611 499Q611 361 668 255T826 89T1054 29Z" />
<glyph unicode="A" horiz-adv-x="1653" d="M147 0L791 1650H862L1506 0H1423L1195 591H458L230 0H147ZM485 660H1168L826 1553L485 660Z" />
<glyph unicode="B" horiz-adv-x="1285" d="M225 0V1650H520Q762 1650 895 1542T1028 1232Q1028 953 779 855Q968 831 1071 721T1174 433Q1174 297 1113 200T938 52T664 0H225ZM302 876H514Q727 876 841 968T955 1229Q955 1400 840 1492T514 1585H302V876ZM302
68H655Q866 68 982 164T1099 433Q1099 609 982 707T655 805H302V68Z" />
<glyph unicode="C" horiz-adv-x="1642" d="M998 -32Q813 -32 657 32T384 213T205 485T141 824Q141 1007 204 1162T384 1434T656 1615T998 1680Q1155 1680 1290 1634T1532 1504L1490 1441Q1393 1520 1269 1561T1004 1603Q832 1603 690 1543T444 1377T283 1130T226
824Q226 660 283 519T443 271T689 105T1004 45Q1144 45 1268 86T1490 207L1532 144Q1426 62 1291 15T998 -32Z" />
<glyph unicode="D" horiz-adv-x="1650" d="M288 0V1650H624Q800 1650 951 1587T1216 1412T1392 1149T1456 825Q1456 650 1393 500T1217 238T952 63T624 0H288ZM365 69H621Q781 69 918 127T1159 288T1320 528T1378 825Q1378 984 1321 1121T1159 1361T918 1523T621
1581H365V69Z" />
<glyph unicode="E" horiz-adv-x="1259" d="M288 0V1650H1082V1581H365V861H1058V793H365V69H1082V0H288Z" />
<glyph unicode="F" horiz-adv-x="1240" d="M288 0V1650H1083V1581H313L365 1615V771L313 861H1037V793H313L365 883V0H288Z" />
<glyph unicode="G" horiz-adv-x="1944" d="M1012 -32Q839 -32 691 34T432 218T259 491T197 823Q197 985 251 1138T410 1413T667 1608T1017 1680Q1154 1680 1270 1645T1479 1547T1639 1404L1592 1347Q1495 1466 1345 1538T1013 1611Q840 1611 704 1546T473 1370T328
1118T279 825Q279 661 334 518T489 267T722 99T1008 38Q1133 38 1253 79T1472 200T1627 392T1685 644V716H1001V784H1765V681Q1765 495 1698 361T1519 139T1275 10T1012 -32Z" />
<glyph unicode="H" horiz-adv-x="1755" d="M288 0V1650H365V861H1390V1650H1467V0H1390V793H365V0H288Z" />
<glyph unicode="I" horiz-adv-x="653" d="M288 0V1650H365V0H288Z" />
<glyph unicode="J" horiz-adv-x="1319" d="M556 -32Q340 -32 184 120L224 185Q361 41 558 41Q756 41 863 159T971 493V1650H1048V464Q1048 231 918 100T556 -32Z" />
<glyph unicode="K" horiz-adv-x="1446" d="M288 0V1650H365V864L1164 1650H1267L425 823L1344 0H1232L365 772V0H288Z" />
<glyph unicode="L" horiz-adv-x="1240" d="M288 0V1650H365V69H1097V0H288Z" />
<glyph unicode="M" horiz-adv-x="2058" d="M186 0L422 1650H504L1029 246L1554 1650H1636L1872 0H1795L1577 1497L1064 127H993L481 1497L263 0H186Z" />
<glyph unicode="N" horiz-adv-x="1692" d="M288 0V1650H365L1327 137V1650H1405V0H1327L365 1511V0H288Z" />
<glyph unicode="O" horiz-adv-x="2054" d="M1027 -32Q854 -32 703 34T438 217T260 490T195 824Q195 1003 259 1158T438 1430T703 1614T1027 1680Q1200 1680 1351 1614T1616 1431T1794 1158T1859 824Q1859 646 1795 491T1616 218T1351 34T1027 -32ZM1027 43Q1184
43 1319 103T1557 270T1718 520T1776 824Q1776 987 1718 1128T1558 1377T1320 1545T1027 1605Q872 1605 736 1545T497 1378T336 1129T278 824Q278 662 336 520T496 271T735 103T1027 43Z" />
<glyph unicode="P" horiz-adv-x="1349" d="M288 0V1650H658Q820 1650 935 1595T1111 1437T1172 1198Q1172 1062 1111 956T935 789T658 728H365V0H288ZM365 798H650Q790 798 890 849T1043 991T1097 1197Q1097 1315 1044 1402T890 1537T650 1585H365V798Z" />
<glyph unicode="Q" horiz-adv-x="2010" d="M1819 -54Q1738 -21 1653 24T1479 126Q1267 -32 986 -32Q809 -32 658 32T394 211T219 482T156 818Q156 998 220 1154T398 1429T663 1613T989 1680Q1163 1680 1314 1614T1578 1431T1756 1159T1820 823Q1820 633 1746 463T1535
174Q1620 123 1700 83T1855 17L1819 -54ZM985 43Q1103 43 1211 76T1411 175Q1322 238 1240 309T1085 459L1122 499Q1278 342 1465 218Q1595 327 1665 485T1736 822Q1736 986 1679 1128T1520 1378T1282 1545T989 1605Q832 1605 696 1545T458 1378T297 1127T239 818Q239
652 295 511T453 265T689 101T985 43Z" />
<glyph unicode="R" horiz-adv-x="1350" d="M288 0V1650H658Q817 1650 932 1595T1109 1439T1172 1198Q1172 1062 1113 960T948 797T695 730L1248 0H1149L601 727H365V0H288ZM365 798H650Q786 798 886 847T1042 986T1097 1197Q1097 1377 977 1481T650 1585H365V798Z" />
<glyph unicode="S" horiz-adv-x="1369" d="M692 -32Q558 -32 462 12T301 117T203 235T160 317L213 360Q224 333 256 281T346 174T488 79T693 40Q806 40 901 81T1055 206T1113 412Q1113 514 1074 583T968 700T820 781T654 844Q597 864 530 893T401 968T301 1083T261
1255Q261 1343 293 1420T382 1555T519 1647T694 1680Q797 1680 877 1644T1013 1554T1094 1444L1041 1403Q1019 1453 971 1500T853 1578T693 1609Q577 1609 496 1557T374 1422T332 1253Q332 1169 366 1112T454 1017T572 952T695 906Q784 875 871 838T1030 747T1145
613T1189 416Q1189 272 1121 172T941 20T692 -32Z" />
<glyph unicode="T" horiz-adv-x="1446" d="M684 0V1576H143V1650H1303V1576H762V0H684Z" />
<glyph unicode="U" horiz-adv-x="1625" d="M813 -32Q539 -32 403 124T266 593V1650H343V601Q343 326 462 186T813 45Q1045 45 1164 185T1283 601V1650H1360V593Q1360 281 1224 125T813 -32Z" />
<glyph unicode="V" horiz-adv-x="1736" d="M838 0L146 1650H234L868 116L1503 1650H1591L899 0H838Z" />
<glyph unicode="W" horiz-adv-x="2538" d="M651 0L154 1650H240L696 91L1237 1650H1301L1842 91L2298 1650H2384L1887 0H1798L1269 1493L740 0H651Z" />
<glyph unicode="X" horiz-adv-x="1644" d="M140 0L773 892L236 1650H331L822 959L1313 1650H1408L871 892L1504 0H1406L822 823L238 0H140Z" />
<glyph unicode="Y" horiz-adv-x="1464" d="M694 0V706L140 1650H233L732 795L1231 1650H1325L771 706V0H694Z" />
<glyph unicode="Z" horiz-adv-x="1604" d="M142 0L1307 1576H254V1650H1456L291 74H1400V0H142Z" />
<glyph unicode="[" horiz-adv-x="760" d="M277 -520V1720H622V1652H349V-452H622V-520H277Z" />
<glyph unicode="\" horiz-adv-x="1053" d="M910 0L86 1720H143L967 0H910Z" />
<glyph unicode="]" horiz-adv-x="760" d="M138 -520V-452H410V1652H138V1720H483V-520H138Z" />
<glyph unicode="^" horiz-adv-x="1300" d="M217 1210L631 1680H669L1083 1210H1017L650 1632L283 1210H217Z" />
<glyph unicode="_" horiz-adv-x="1487" d="M231 -200V-151H1257V-200H231Z" />
<glyph unicode="`" horiz-adv-x="289" d="M176 1179L0 1515L74 1565L227 1212L176 1179Z" />
<glyph unicode="a" horiz-adv-x="1430" d="M671 -32Q526 -32 410 38T227 232T160 512Q160 670 227 792T409 985T671 1056Q823 1056 944 981T1123 773V1024H1199V0H1123V252Q1060 119 941 44T671 -32ZM682 37Q813 37 913 97T1071 266T1129 512Q1129 651 1072 758T914
926T682 987Q553 987 452 927T293 759T235 512Q235 374 293 267T452 98T682 37Z" />
<glyph unicode="b" horiz-adv-x="1430" d="M759 -32Q609 -32 490 43T307 252V0H231V1720H307V773Q370 905 489 980T758 1056Q904 1056 1020 986T1203 793T1270 512Q1270 355 1203 232T1020 39T759 -32ZM748 37Q878 37 979 98T1137 266T1195 512Q1195 651 1137
758T979 926T748 987Q617 987 517 927T359 759T301 512Q301 374 358 266T517 98T748 37Z" />
<glyph unicode="c" horiz-adv-x="1177" d="M705 -32Q590 -32 490 8T316 121T199 294T157 512Q157 631 198 730T315 903T489 1016T705 1056Q807 1056 898 1025T1058 938L1018 886Q890 988 709 988Q570 988 462 927T293 757T231 512Q231 376 292 268T461 98T710
36Q798 36 876 62T1016 138L1058 86Q987 31 897 0T705 -32Z" />
<glyph unicode="d" horiz-adv-x="1430" d="M671 -32Q526 -32 410 38T227 232T160 512Q160 670 227 792T410 985T672 1056Q821 1056 941 981T1123 773V1722H1199V0H1123V252Q1060 119 941 44T671 -32ZM682 37Q813 37 913 97T1071 266T1129 512Q1129 651 1072 758T914
926T682 987Q553 987 452 927T293 759T235 512Q235 374 293 267T452 98T682 37Z" />
<glyph unicode="e" horiz-adv-x="1353" d="M705 -32Q545 -32 421 39T227 232T156 506Q156 622 197 722T312 897T480 1014T684 1056Q825 1056 941 989T1129 806T1212 541Q1213 532 1213 525T1212 509H229Q229 372 290 265T460 96T707 35Q837 35 943 91T1114 248L1172
214Q1099 97 977 33T705 -32ZM232 572H1136Q1124 691 1061 785T900 934T686 989Q568 989 470 935T308 786T232 572Z" />
<glyph unicode="f" horiz-adv-x="682" d="M241 0V967H152V1024H241V1440Q241 1543 268 1611T350 1715T484 1750Q533 1750 573 1738T644 1701L617 1645Q571 1684 497 1684Q438 1684 398 1656T338 1576T317 1449V1024H586V967H317V0H241Z" />
<glyph unicode="g" horiz-adv-x="1431" d="M663 -550Q475 -550 345 -474T148 -252L215 -224Q266 -344 386 -415T665 -487Q795 -487 899 -436T1063 -285T1124 -45V252Q1061 119 942 44T672 -32Q527 -32 411 38T228 232T161 512Q161 670 228 792T411 985T673 1056Q822
1056 942 981T1124 773V1024H1200V-28Q1200 -206 1132 -321T943 -493T663 -550ZM683 37Q814 37 914 97T1072 266T1130 512Q1130 651 1073 758T915 926T683 987Q554 987 453 927T294 759T236 512Q236 374 293 267T452 98T683 37Z" />
<glyph unicode="h" horiz-adv-x="1241" d="M231 0V1722H307V873Q341 947 428 1001T652 1056Q771 1056 855 1008T983 866T1028 635V0H952V624Q952 803 871 897T639 991Q534 991 460 949T346 839T307 694V0H231Z" />
<glyph unicode="i" horiz-adv-x="537" d="M230 0V1024H306V0H230ZM268 1225Q252 1225 239 1233T217 1254T209 1284Q209 1300 217 1313T238 1333T268 1341Q284 1341 296 1334T317 1313T325 1284Q325 1268 317 1255T297 1233T268 1225Z" />
<glyph unicode="j" horiz-adv-x="538" d="M63 -550Q16 -550 -24 -538T-92 -503L-70 -443Q-25 -484 54 -484Q232 -484 232 -252V1024H308V-248Q308 -398 247 -474T63 -550ZM270 1227Q254 1227 241 1235T219 1256T211 1286Q211 1302 219 1315T240 1336T270 1344Q286
1344 299 1336T320 1315T328 1286Q328 1270 320 1257T299 1235T270 1227Z" />
<glyph unicode="k" horiz-adv-x="1018" d="M231 0V1720H307V586L729 1024H829L377 551L854 0H757L307 521V0H231Z" />
<glyph unicode="l" horiz-adv-x="537" d="M231 0V1720H307V0H231Z" />
<glyph unicode="m" horiz-adv-x="1960" d="M231 0V1024H307V873Q360 961 449 1008T652 1056Q782 1056 874 996T1001 831Q1053 930 1146 993T1374 1056Q1482 1056 1566 1012T1698 883T1747 671V0H1671V648Q1671 805 1589 897T1370 990Q1274 990 1197 948T1073 840T1027
707V0H951V666Q951 816 869 903T654 990Q560 990 481 950T355 848T307 725V0H231Z" />
<glyph unicode="n" horiz-adv-x="1241" d="M231 0V1024H307V873Q341 947 428 1001T652 1056Q771 1056 855 1008T983 866T1028 635V0H952V624Q952 803 871 896T639 989Q534 989 460 948T346 839T307 694V0H231Z" />
<glyph unicode="o" horiz-adv-x="1419" d="M709 -32Q553 -32 428 37T230 228T157 512Q157 673 230 795T428 987T709 1056Q866 1056 990 987T1188 796T1262 512Q1262 351 1189 229T991 37T709 -32ZM709 40Q847 40 954 101T1123 268T1185 512Q1185 649 1124 755T955
923T709 984Q572 984 465 923T296 756T234 512Q234 375 295 269T464 101T709 40Z" />
<glyph unicode="p" horiz-adv-x="1430" d="M231 -520V1024H307V775Q369 907 488 981T756 1056Q904 1056 1020 985T1203 792T1270 512Q1270 356 1203 233T1021 39T757 -32Q609 -32 490 43T307 252V-520H231ZM748 37Q877 37 978 98T1137 266T1195 512Q1195 651 1137
758T979 926T748 987Q617 987 517 927T359 759T301 512Q301 374 358 266T517 98T748 37Z" />
<glyph unicode="q" horiz-adv-x="1430" d="M1123 -520V252Q1060 119 941 44T673 -32Q525 -32 410 39T227 233T160 512Q160 669 227 791T410 985T674 1056Q822 1056 941 981T1123 773V1024H1199V-520H1123ZM682 37Q813 37 913 97T1071 266T1129 512Q1129 651 1072
758T914 926T682 987Q553 987 452 927T293 759T235 512Q235 374 293 267T452 98T682 37Z" />
<glyph unicode="r" horiz-adv-x="846" d="M231 0V1024H307V871Q351 963 426 1009T606 1056Q648 1056 689 1049T763 1029L732 965Q704 976 669 982T600 989Q525 989 458 951T349 851T307 721V0H231Z" />
<glyph unicode="s" horiz-adv-x="977" d="M485 -32Q359 -32 265 38T123 237L178 268Q219 157 299 95T484 32Q558 32 621 64T722 154T760 293Q760 364 728 404T634 472T484 534Q417 560 354 592T249 675T208 803Q208 876 246 933T349 1023T497 1056Q586 1056 658
1013T776 892L726 856Q651 993 497 993Q401 993 340 941T279 804Q279 745 311 708T398 646T521 594Q616 557 685 523T793 438T832 296Q832 197 786 123T662 9T485 -32Z" />
<glyph unicode="t" horiz-adv-x="695" d="M442 -32Q343 -32 290 37T236 231V967H146V1024H236V1406H312V1024H580V967H312V233Q312 136 348 85T454 34Q519 34 564 68L583 8Q557 -10 520 -21T442 -32Z" />
<glyph unicode="u" horiz-adv-x="1211" d="M606 -32Q393 -32 304 70T214 416V1024H290V422Q290 214 362 125T606 36Q776 36 849 125T922 422V1024H998V416Q998 172 909 70T606 -32Z" />
<glyph unicode="v" horiz-adv-x="1202" d="M577 0L97 1024H185L601 122L1017 1024H1105L626 0H577Z" />
<glyph unicode="w" horiz-adv-x="1948" d="M577 0L97 1024H184L600 123L949 1024H999L1348 123L1764 1024H1851L1372 0H1322L974 887L626 0H577Z" />
<glyph unicode="x" horiz-adv-x="1155" d="M93 0L524 525L150 1024H235L577 577L919 1024H1005L631 525L1061 0H973L577 484L181 0H93Z" />
<glyph unicode="y" horiz-adv-x="1220" d="M367 -520L585 -19L97 1024H182L627 67L1035 1024H1120L450 -520H367Z" />
<glyph unicode="z" horiz-adv-x="1203" d="M97 0L937 954H172V1024H1095L253 70H1077V0H97Z" />
<glyph unicode="{" horiz-adv-x="768" d="M586 -520Q490 -520 428 -488T331 -402T282 -284T268 -158V482Q268 531 251 551T197 571V629Q234 629 251 649T268 718V1358Q268 1420 282 1484T331 1601T428 1687T586 1720H627V1651H593Q463 1651 402 1574T340 1356V685Q340
652 332 631T306 600Q324 590 332 569T340 515V-156Q340 -297 401 -374T593 -451H627V-520H586Z" />
<glyph unicode="|" horiz-adv-x="764" d="M345 0V1720H418V0H345Z" />
<glyph unicode="}" horiz-adv-x="768" d="M141 -520V-451H174Q306 -451 366 -374T427 -156V515Q427 548 435 569T462 600Q444 610 436 631T427 685V1356Q427 1497 367 1574T174 1651H141V1720H182Q278 1720 340 1688T437 1602T486 1484T500 1358V718Q500 670 517
650T571 629V571Q535 571 518 551T500 482V-158Q500 -220 486 -284T437 -401T340 -487T182 -520H141Z" />
<glyph unicode="~" horiz-adv-x="1535" d="M970 718Q903 718 855 742T765 798T676 854T568 878Q484 878 425 832T331 722L283 765Q310 813 351 853T446 919T564 944Q631 944 679 920T769 864T857 807T966 783Q1040 783 1101 823T1204 939L1252 896Q1220 841 1176
801T1080 740T970 718Z" />
<glyph unicode="&#xa0;" horiz-adv-x="503" />
<glyph unicode="&#xa1;" horiz-adv-x="716" d="M322 -522L325 848H391L394 -522H322ZM358 1110Q341 1110 328 1118T306 1139T298 1170Q298 1186 306 1200T327 1222T358 1230Q374 1230 387 1222T409 1200T418 1170Q418 1153 410 1140T388 1118T358 1110Z" />
<glyph unicode="&#xa2;" horiz-adv-x="1415" d="M780 -258V-31Q631 -24 515 49T332 242T265 512Q265 653 324 768T490 958T735 1050V1272H791V1056Q911 1056 1000 1027T1166 936L1139 882Q1075 940 993 969T816 999Q677 999 569 937T399 764T337 511Q337 371 398
262T567 89T816 26Q911 26 994 55T1139 140L1166 86Q1100 33 1016 3T838 -32V-258H780Z" />
<glyph unicode="&#xa3;" horiz-adv-x="1769" d="M1169 -30Q1083 -30 1014 -3T883 61T757 124T619 151Q562 151 508 132T417 79T372 0H302Q308 51 346 97T446 175T585 212Q605 259 618 320T632 444Q632 508 616 553T576 640H241V696H542Q481 784 430 888T378 1140Q378
1303 447 1424T636 1612T911 1680Q1041 1680 1153 1631T1344 1487T1453 1255L1386 1236Q1369 1326 1313 1414T1158 1560T913 1618Q771 1618 668 1558T507 1390T450 1139Q450 1037 476 960T540 819T614 696H1155V640H642Q667 595 681 550T695 445Q695 395 684 335T645
212Q715 212 778 186T903 125T1031 64T1172 38Q1262 38 1324 78T1421 180T1464 311L1531 277Q1516 193 1468 123T1344 12T1169 -30Z" />
<glyph unicode="&#xa4;" horiz-adv-x="1221" d="M176 189L140 225L274 359Q220 419 190 495T159 660Q159 747 189 824T274 960L140 1094L176 1130L310 996Q370 1050 446 1080T611 1111Q698 1111 775 1081T912 996L1045 1130L1081 1094L947 960Q1001 901 1031 824T1062
660Q1062 572 1032 495T947 359L1081 225L1045 189L912 322Q852 269 775 239T611 208Q523 208 447 238T310 323L176 189ZM611 267Q720 267 809 320T950 462T1003 660Q1003 769 951 858T809 999T611 1052Q502 1052 413 1000T271 858T218 660Q218 551 271 462T413
320T611 267Z" />
<glyph unicode="&#xa5;" horiz-adv-x="1630" d="M775 0V351H391V411H775V690H391V751H751L223 1650H317L814 795L1313 1650H1407L879 751H1239V690H855V411H1239V351H855V0H775Z" />
<glyph unicode="&#xa6;" horiz-adv-x="764" d="M345 1056V1720H418V1056H345ZM345 0V664H418V0H345Z" />
<glyph unicode="&#xa7;" horiz-adv-x="1488" d="M761 -550Q656 -550 565 -518T402 -431T284 -314T218 -190L287 -164Q321 -257 393 -327T560 -437T761 -477Q872 -477 961 -432T1103 -303T1156 -106Q1156 12 1099 85T939 209T704 310Q639 335 571 366T444 438T350
537T314 670Q314 759 365 835T496 942Q405 1002 361 1080T316 1260Q316 1382 372 1476T526 1625T744 1680Q817 1680 881 1661T998 1607T1088 1526T1148 1428L1078 1402Q1045 1491 952 1549T744 1607Q645 1607 566 1561T441 1436T395 1261Q395 1181 426 1126T511
1032T629 965T762 911Q833 884 915 850T1071 770T1190 662T1237 515Q1237 428 1185 352T1049 241Q1145 174 1191 88T1238 -105Q1238 -238 1174 -338T1003 -494T761 -550ZM985 274Q1032 291 1069 326T1128 409T1149 510Q1149 577 1110 631T976 735T721 842Q674 858
644 871T560 910Q520 897 484 863T425 779T402 669Q402 596 440 548T553 462T738 383Q807 359 843 344T909 315T985 274Z" />
<glyph unicode="&#xa8;" horiz-adv-x="586" d="M529 1341Q506 1341 489 1358T472 1398Q472 1422 489 1438T529 1455Q553 1455 569 1439T586 1398Q586 1375 570 1358T529 1341ZM57 1341Q34 1341 17 1358T0 1398Q0 1422 17 1438T57 1455Q81 1455 97 1439T114 1398Q114
1375 98 1358T57 1341Z" />
<glyph unicode="&#xa9;" horiz-adv-x="2169" d="M1083 -32Q906 -32 755 32T490 213T313 484T250 820Q250 1000 314 1156T492 1430T757 1614T1083 1680Q1259 1680 1411 1614T1677 1431T1856 1157T1920 820Q1920 641 1857 486T1679 215T1413 33T1083 -32ZM1083 34Q1246
34 1385 93T1628 260T1791 510T1849 820Q1849 987 1791 1131T1627 1383T1383 1553T1083 1614Q924 1614 786 1553T543 1383T380 1130T321 820Q321 652 378 509T539 259T782 93T1083 34ZM1100 296Q949 296 829 365T640 553T570 822Q570 973 639 1091T828 1279T1101
1349Q1197 1349 1285 1320T1441 1236L1403 1182Q1278 1279 1108 1279Q978 1279 875 1220T712 1057T652 822Q652 693 711 590T875 427T1110 367Q1192 367 1268 392T1403 463L1441 408Q1289 296 1100 296Z" />
<glyph unicode="&#xaa;" horiz-adv-x="1049" d="M493 1008Q403 1008 332 1051T218 1169T176 1344Q176 1442 217 1518T331 1637T494 1680Q586 1680 659 1633T770 1505V1660H817V1028H770V1184Q733 1103 660 1056T493 1008ZM498 1048Q577 1048 638 1087T735 1192T771
1344Q771 1474 694 1557T498 1640Q418 1640 357 1602T259 1497T223 1344Q223 1259 258 1193T356 1087T498 1048Z" />
<glyph unicode="&#xab;" horiz-adv-x="1056" d="M542 56L152 556L542 1056L597 1013L241 556L597 99L542 56ZM837 56L447 556L837 1056L892 1013L536 556L892 99L837 56Z" />
<glyph unicode="&#xac;" horiz-adv-x="1471" d="M1182 316V795H223V861H1247V316H1182Z" />
<glyph unicode="&#xad;" horiz-adv-x="1105" d="M231 547V613H875V547H231Z" />
<glyph unicode="&#xae;" horiz-adv-x="1439" d="M720 771Q593 771 488 833T321 1000T258 1231Q258 1358 320 1462T488 1630T720 1693Q846 1693 950 1631T1117 1464T1180 1231Q1180 1103 1118 999T951 833T720 771ZM719 821Q832 821 925 876T1074 1025T1131 1231Q1131
1344 1075 1437T926 1587T720 1643Q606 1643 513 1587T365 1438T309 1231Q309 1118 364 1025T513 876T719 821ZM584 930V1533H685Q771 1533 821 1489T872 1368Q872 1295 826 1248T702 1197L909 930H851L650 1196H629V930H584ZM629 1232H676Q743 1232 784 1269T826
1368Q826 1429 785 1462T676 1495H629V1232Z" />
<glyph unicode="&#xaf;" horiz-adv-x="816" d="M0 1359V1418H816V1359H0Z" />
<glyph unicode="&#xb0;" horiz-adv-x="1026" d="M512 1338Q420 1338 364 1397T308 1543Q308 1635 367 1692T512 1750Q599 1750 658 1693T718 1544Q718 1454 661 1396T512 1338ZM513 1390Q581 1390 622 1433T664 1543Q664 1614 620 1656T512 1698Q448 1698 406
1655T363 1542Q363 1475 404 1433T513 1390Z" />
<glyph unicode="&#xb1;" horiz-adv-x="1502" d="M718 323V799H239V864H718V1340H784V864H1263V799H784V323H718ZM239 0V65H1263V0H239Z" />
<glyph unicode="&#xb2;" horiz-adv-x="661" d="M94 1026V1058Q234 1157 317 1230T438 1363T476 1478Q476 1547 431 1590T320 1634Q250 1634 201 1585T148 1464L102 1478Q107 1565 169 1622T319 1680Q406 1680 468 1624T531 1472Q531 1417 501 1363T397 1241T187
1071H543V1026H94Z" />
<glyph unicode="&#xb3;" horiz-adv-x="636" d="M301 1026Q209 1026 158 1074T101 1189L149 1204Q149 1148 190 1111T299 1074Q368 1074 404 1110T440 1199Q440 1260 398 1301T301 1343Q286 1343 277 1340V1379H298Q355 1379 394 1418T433 1511Q433 1565 397 1600T308
1636Q256 1636 219 1601T178 1511L136 1523Q139 1590 188 1635T308 1680Q384 1680 433 1631T483 1514Q483 1464 455 1422T380 1362Q433 1347 463 1302T493 1201Q493 1127 443 1077T301 1026Z" />
<glyph unicode="&#xb4;" horiz-adv-x="289" d="M51 1179L0 1212L153 1565L227 1515L51 1179Z" />
<glyph unicode="&#xb5;" horiz-adv-x="1470" d="M323 -320Q323 -189 327 -93T338 85T350 252T355 444V1026H431V405Q431 220 513 127T757 33Q846 33 918 73T1034 180T1077 330V1026H1153V0H1077V151Q1042 71 951 20T751 -32Q636 -32 556 7T431 123V-320H323Z" />
<glyph unicode="&#xb6;" horiz-adv-x="1469" d="M937 0V728H743Q582 728 468 789T294 957T234 1198Q234 1333 294 1435T468 1593T743 1650H1124V0H1058V1591H1003V0H937Z" />
<glyph unicode="&#xb7;" horiz-adv-x="741" d="M370 478Q354 478 340 486T318 508T310 538Q310 555 318 568T340 590T370 598Q387 598 400 590T422 569T430 538Q430 522 422 508T401 486T370 478Z" />
<glyph unicode="&#xb8;" horiz-adv-x="478" d="M243 -532Q163 -532 99 -496T0 -394L47 -366Q107 -475 244 -475Q323 -475 371 -436T420 -332Q420 -274 380 -238T276 -201Q240 -201 198 -212T125 -242L121 -239L207 28H266L205 -158Q236 -152 254 -151T288 -150Q372
-151 425 -202T478 -332Q478 -420 412 -476T243 -532Z" />
<glyph unicode="&#xb9;" horiz-adv-x="401" d="M182 1026V1600H127V1650H230V1026H182Z" />
<glyph unicode="&#xba;" horiz-adv-x="1023" d="M511 1008Q415 1008 338 1051T216 1169T171 1344Q171 1444 216 1519T338 1637T511 1680Q607 1680 684 1638T806 1520T852 1344Q852 1245 807 1170T684 1051T511 1008ZM510 1050Q596 1050 662 1088T767 1192T806
1344Q806 1429 768 1495T663 1599T511 1638Q426 1638 360 1600T255 1495T216 1344Q216 1258 255 1192T360 1088T510 1050Z" />
<glyph unicode="&#xbb;" horiz-adv-x="1054" d="M463 56L407 99L764 556L407 1013L463 1056L853 556L463 56ZM269 56L214 99L570 556L214 1013L269 1056L659 556L269 56Z" />
<glyph unicode="&#xbc;" horiz-adv-x="2093" d="M297 600V1584H253V1650H360V600H297ZM242 0L1391 1650H1470L322 0H242ZM1604 0V205H1014V243L1602 1050H1669V264H1806V205H1669V0H1604ZM1099 264H1604V957L1099 264Z" />
<glyph unicode="&#xbd;" horiz-adv-x="2321" d="M297 600V1584H253V1650H360V600H297ZM242 0L1391 1650H1470L322 0H242ZM1172 0V29Q1391 180 1533 287T1756 473T1870 612T1903 733Q1903 811 1860 875T1744 976T1583 1014Q1496 1014 1423 976T1306 874T1258 729L1192
744Q1196 839 1249 915T1391 1035T1586 1080Q1693 1080 1782 1035T1924 911T1977 732Q1977 668 1948 606T1847 469T1649 298T1328 66H1999V0H1172Z" />
<glyph unicode="&#xbe;" horiz-adv-x="2581" d="M655 579Q512 579 416 654T313 857L379 874Q380 772 458 709T655 645Q773 645 842 707T912 867Q912 936 878 993T786 1083T660 1116Q637 1116 620 1112V1167H653Q724 1167 781 1199T871 1284T905 1399Q905 1461
873 1511T788 1590T671 1620Q608 1620 555 1590T469 1511T435 1399L375 1413Q379 1490 419 1550T527 1645T672 1680Q758 1680 825 1642T932 1541T972 1401Q972 1316 920 1244T782 1143Q866 1121 925 1048T984 868Q984 787 945 722T833 618T655 579ZM730 0L1879
1650H1958L810 0H730ZM2092 0V205H1502V243L2090 1050H2157V264H2294V205H2157V0H2092ZM1587 264H2092V957L1587 264Z" />
<glyph unicode="&#xbf;" horiz-adv-x="1384" d="M709 -550Q564 -550 451 -485T274 -309T210 -57Q210 80 271 192T446 371T715 439V749H783V368Q766 370 754 371T725 373Q599 373 500 322T343 175T285 -59Q285 -190 338 -284T487 -427T703 -477Q892 -477 1005 -363T1119
-55L1191 -59Q1189 -219 1123 -328T949 -494T709 -550ZM750 1042Q734 1042 720 1050T698 1071T690 1102Q690 1118 698 1132T720 1154T750 1162Q766 1162 780 1154T802 1132T810 1102Q810 1085 802 1072T780 1050T750 1042Z" />
<glyph unicode="&#xc0;" horiz-adv-x="1653" d="M147 0L791 1650H862L1506 0H1423L1195 591H458L230 0H147ZM485 660H1168L826 1553L485 660ZM887 1803L711 2139L785 2189L938 1836L887 1803Z" />
<glyph unicode="&#xc1;" horiz-adv-x="1653" d="M147 0L791 1650H862L1506 0H1423L1195 591H458L230 0H147ZM485 660H1168L826 1553L485 660ZM832 1803L781 1836L934 2189L1008 2139L832 1803Z" />
<glyph unicode="&#xc2;" horiz-adv-x="1653" d="M147 0L791 1650H862L1506 0H1423L1195 591H458L230 0H147ZM485 660H1168L826 1553L485 660ZM520 2002L483 2053L826 2304L1169 2053L1132 2002L826 2226L520 2002Z" />
<glyph unicode="&#xc3;" horiz-adv-x="1653" d="M147 0L791 1650H862L1506 0H1423L1195 591H458L230 0H147ZM485 660H1168L826 1553L485 660ZM1026 1932Q958 1932 910 1956T821 2012T734 2068T626 2093Q543 2093 485 2046T391 1937L344 1979Q388 2054 458 2105T626
2157Q694 2157 743 2133T834 2077T921 2021T1027 1997Q1099 1997 1160 2037T1262 2152L1309 2110Q1275 2053 1231 2013T1134 1953T1026 1932Z" />
<glyph unicode="&#xc4;" horiz-adv-x="1653" d="M147 0L791 1650H862L1506 0H1423L1195 591H458L230 0H147ZM485 660H1168L826 1553L485 660ZM1062 1965Q1039 1965 1022 1982T1005 2022Q1005 2046 1022 2062T1062 2079Q1086 2079 1102 2063T1119 2022Q1119 1999
1103 1982T1062 1965ZM590 1965Q567 1965 550 1982T533 2022Q533 2046 550 2062T590 2079Q614 2079 630 2063T647 2022Q647 1999 631 1982T590 1965Z" />
<glyph unicode="&#xc5;" horiz-adv-x="1653" d="M147 0L791 1650H862L1506 0H1423L1195 591H458L230 0H147ZM485 660H1168L826 1553L485 660ZM827 1909Q770 1909 724 1932T651 1995T624 2088V2088Q624 2140 651 2181T724 2245T827 2268Q883 2268 929 2245T1002
2181T1029 2088Q1029 2036 1002 1996T929 1932T827 1909ZM827 1968Q888 1968 927 2002T967 2088Q967 2141 928 2174T827 2208Q766 2208 726 2175T686 2088V2088Q686 2036 726 2002T827 1968Z" />
<glyph unicode="&#xc6;" horiz-adv-x="2364" d="M147 0L791 1650H1583L1610 1581H893L1169 861H1862L1888 793H1197L1479 69H2191L2217 0H1422L1195 591H458L230 0H147ZM485 660H1168L826 1552L485 660Z" />
<glyph unicode="&#xc7;" horiz-adv-x="1642" d="M998 -32Q813 -32 657 32T384 213T205 485T141 824Q141 1007 204 1162T384 1434T656 1615T998 1680Q1155 1680 1290 1634T1532 1504L1490 1441Q1393 1520 1269 1561T1004 1603Q832 1603 690 1543T444 1377T283 1130T226
824Q226 660 283 519T443 271T689 105T1004 45Q1144 45 1268 86T1490 207L1532 144Q1426 62 1291 15T998 -32ZM976 -592Q896 -592 832 -556T733 -454L780 -426Q840 -535 977 -535Q1056 -535 1104 -496T1153 -392Q1153 -334 1113 -298T1009 -261Q973 -261 931 -272T858
-302L854 -299L940 -32H999L938 -218Q969 -212 987 -211T1021 -210Q1105 -211 1158 -262T1211 -392Q1211 -480 1145 -536T976 -592Z" />
<glyph unicode="&#xc8;" horiz-adv-x="1259" d="M288 0V1650H1082V1581H365V861H1058V793H365V69H1082V0H288ZM765 1803L589 2139L663 2189L816 1836L765 1803Z" />
<glyph unicode="&#xc9;" horiz-adv-x="1259" d="M288 0V1650H1082V1581H365V861H1058V793H365V69H1082V0H288ZM709 1803L658 1836L811 2189L885 2139L709 1803Z" />
<glyph unicode="&#xca;" horiz-adv-x="1259" d="M288 0V1650H1082V1581H365V861H1058V793H365V69H1082V0H288ZM398 2002L361 2053L704 2304L1047 2053L1010 2002L704 2226L398 2002Z" />
<glyph unicode="&#xcb;" horiz-adv-x="1259" d="M288 0V1650H1082V1581H365V861H1058V793H365V69H1082V0H288ZM940 1965Q917 1965 900 1982T883 2022Q883 2046 900 2062T940 2079Q964 2079 980 2063T997 2022Q997 1999 981 1982T940 1965ZM468 1965Q445 1965 428
1982T411 2022Q411 2046 428 2062T468 2079Q492 2079 508 2063T525 2022Q525 1999 509 1982T468 1965Z" />
<glyph unicode="&#xcc;" horiz-adv-x="653" d="M288 0V1650H365V0H288ZM387 1803L211 2139L285 2189L438 1836L387 1803Z" />
<glyph unicode="&#xcd;" horiz-adv-x="653" d="M288 0V1650H365V0H288ZM332 1803L281 1836L434 2189L508 2139L332 1803Z" />
<glyph unicode="&#xce;" horiz-adv-x="653" d="M288 0V1650H365V0H288ZM20 2002L-17 2053L326 2304L669 2053L632 2002L326 2226L20 2002Z" />
<glyph unicode="&#xcf;" horiz-adv-x="653" d="M288 0V1650H365V0H288ZM562 1965Q539 1965 522 1982T505 2022Q505 2046 522 2062T562 2079Q586 2079 602 2063T619 2022Q619 1999 603 1982T562 1965ZM90 1965Q67 1965 50 1982T33 2022Q33 2046 50 2062T90 2079Q114
2079 130 2063T147 2022Q147 1999 131 1982T90 1965Z" />
<glyph unicode="&#xd0;" horiz-adv-x="1680" d="M318 0V793H154V857H318V1650H654Q824 1650 974 1590T1239 1418T1420 1157T1486 826Q1486 645 1421 494T1240 232T975 61T654 0H318ZM395 69H651Q805 69 941 125T1183 282T1348 522T1408 826Q1408 990 1348 1128T1183
1367T941 1525T651 1581H395V857H912V793H395V69Z" />
<glyph unicode="&#xd1;" horiz-adv-x="1692" d="M288 0V1650H365L1327 137V1650H1405V0H1327L365 1511V0H288ZM1045 1932Q977 1932 929 1956T840 2012T753 2068T645 2093Q562 2093 504 2046T410 1937L363 1979Q407 2054 477 2105T645 2157Q713 2157 762 2133T853
2077T940 2021T1046 1997Q1118 1997 1179 2037T1281 2152L1328 2110Q1294 2053 1250 2013T1153 1953T1045 1932Z" />
<glyph unicode="&#xd2;" horiz-adv-x="2054" d="M1027 -32Q854 -32 703 34T438 217T260 490T195 824Q195 1003 259 1158T438 1430T703 1614T1027 1680Q1200 1680 1351 1614T1616 1431T1794 1158T1859 824Q1859 646 1795 491T1616 218T1351 34T1027 -32ZM1027 43Q1184
43 1319 103T1557 270T1718 520T1776 824Q1776 987 1718 1128T1558 1377T1320 1545T1027 1605Q872 1605 736 1545T497 1378T336 1129T278 824Q278 662 336 520T496 271T735 103T1027 43ZM1088 1805L912 2141L986 2191L1139 1838L1088 1805Z" />
<glyph unicode="&#xd3;" horiz-adv-x="2054" d="M1027 -32Q854 -32 703 34T438 217T260 490T195 824Q195 1003 259 1158T438 1430T703 1614T1027 1680Q1200 1680 1351 1614T1616 1431T1794 1158T1859 824Q1859 646 1795 491T1616 218T1351 34T1027 -32ZM1027 43Q1184
43 1319 103T1557 270T1718 520T1776 824Q1776 987 1718 1128T1558 1377T1320 1545T1027 1605Q872 1605 736 1545T497 1378T336 1129T278 824Q278 662 336 520T496 271T735 103T1027 43ZM1033 1805L982 1838L1135 2191L1209 2141L1033 1805Z" />
<glyph unicode="&#xd4;" horiz-adv-x="2054" d="M1027 -32Q854 -32 703 34T438 217T260 490T195 824Q195 1003 259 1158T438 1430T703 1614T1027 1680Q1200 1680 1351 1614T1616 1431T1794 1158T1859 824Q1859 646 1795 491T1616 218T1351 34T1027 -32ZM1027 43Q1184
43 1319 103T1557 270T1718 520T1776 824Q1776 987 1718 1128T1558 1377T1320 1545T1027 1605Q872 1605 736 1545T497 1378T336 1129T278 824Q278 662 336 520T496 271T735 103T1027 43ZM721 2004L684 2055L1027 2306L1370 2055L1333 2004L1027 2228L721 2004Z"
/>
<glyph unicode="&#xd5;" horiz-adv-x="2054" d="M1027 -32Q854 -32 703 34T438 217T260 490T195 824Q195 1003 259 1158T438 1430T703 1614T1027 1680Q1200 1680 1351 1614T1616 1431T1794 1158T1859 824Q1859 646 1795 491T1616 218T1351 34T1027 -32ZM1027 43Q1184
43 1319 103T1557 270T1718 520T1776 824Q1776 987 1718 1128T1558 1377T1320 1545T1027 1605Q872 1605 736 1545T497 1378T336 1129T278 824Q278 662 336 520T496 271T735 103T1027 43ZM1227 1934Q1159 1934 1111 1958T1022 2014T935 2070T827 2095Q744 2095 686
2048T592 1939L545 1981Q589 2056 659 2107T827 2159Q895 2159 944 2135T1035 2079T1122 2023T1228 1999Q1300 1999 1361 2039T1463 2154L1510 2112Q1476 2055 1432 2015T1335 1955T1227 1934Z" />
<glyph unicode="&#xd6;" horiz-adv-x="2054" d="M1027 -32Q854 -32 703 34T438 217T260 490T195 824Q195 1003 259 1158T438 1430T703 1614T1027 1680Q1200 1680 1351 1614T1616 1431T1794 1158T1859 824Q1859 646 1795 491T1616 218T1351 34T1027 -32ZM1027 43Q1184
43 1319 103T1557 270T1718 520T1776 824Q1776 987 1718 1128T1558 1377T1320 1545T1027 1605Q872 1605 736 1545T497 1378T336 1129T278 824Q278 662 336 520T496 271T735 103T1027 43ZM1263 1967Q1240 1967 1223 1984T1206 2024Q1206 2048 1223 2064T1263 2081Q1287
2081 1303 2065T1320 2024Q1320 2001 1304 1984T1263 1967ZM791 1967Q768 1967 751 1984T734 2024Q734 2048 751 2064T791 2081Q815 2081 831 2065T848 2024Q848 2001 832 1984T791 1967Z" />
<glyph unicode="&#xd7;" horiz-adv-x="1331" d="M274 392L229 438L621 828L229 1220L275 1264L665 872L1057 1264L1101 1220L710 828L1101 438L1055 392L665 784L274 392Z" />
<glyph unicode="&#xd8;" horiz-adv-x="2054" d="M1028 -32Q855 -32 704 34T439 217T261 490T196 824Q196 1003 260 1158T439 1430T704 1614T1028 1680Q1201 1680 1352 1614T1617 1431T1795 1158T1860 824Q1860 646 1796 491T1617 218T1352 34T1028 -32ZM1028 43Q1185
43 1321 103T1559 270T1719 520T1777 824Q1777 987 1719 1128T1559 1377T1321 1545T1028 1605Q873 1605 737 1545T498 1378T337 1129T279 824Q279 662 337 520T497 271T736 103T1028 43ZM436 6L380 48L1627 1648L1685 1605L436 6Z" />
<glyph unicode="&#xd9;" horiz-adv-x="1625" d="M813 -32Q539 -32 403 124T266 593V1650H343V601Q343 326 462 186T813 45Q1045 45 1164 185T1283 601V1650H1360V593Q1360 281 1224 125T813 -32ZM874 1803L698 2139L772 2189L925 1836L874 1803Z" />
<glyph unicode="&#xda;" horiz-adv-x="1625" d="M813 -32Q539 -32 403 124T266 593V1650H343V601Q343 326 462 186T813 45Q1045 45 1164 185T1283 601V1650H1360V593Q1360 281 1224 125T813 -32ZM819 1803L768 1836L921 2189L995 2139L819 1803Z" />
<glyph unicode="&#xdb;" horiz-adv-x="1625" d="M813 -32Q539 -32 403 124T266 593V1650H343V601Q343 326 462 186T813 45Q1045 45 1164 185T1283 601V1650H1360V593Q1360 281 1224 125T813 -32ZM507 2002L470 2053L813 2304L1156 2053L1119 2002L813 2226L507 2002Z" />
<glyph unicode="&#xdc;" horiz-adv-x="1625" d="M813 -32Q539 -32 403 124T266 593V1650H343V601Q343 326 462 186T813 45Q1045 45 1164 185T1283 601V1650H1360V593Q1360 281 1224 125T813 -32ZM1049 1965Q1026 1965 1009 1982T992 2022Q992 2046 1009 2062T1049
2079Q1073 2079 1089 2063T1106 2022Q1106 1999 1090 1982T1049 1965ZM577 1965Q554 1965 537 1982T520 2022Q520 2046 537 2062T577 2079Q601 2079 617 2063T634 2022Q634 1999 618 1982T577 1965Z" />
<glyph unicode="&#xdd;" horiz-adv-x="1464" d="M694 0V706L140 1650H233L732 795L1231 1650H1325L771 706V0H694ZM738 1803L687 1836L840 2189L914 2139L738 1803Z" />
<glyph unicode="&#xde;" horiz-adv-x="1349" d="M288 0V1650H365V1277H658Q902 1277 1037 1154T1172 825Q1172 689 1111 583T936 416T658 355H365V0H288ZM365 425H650Q791 425 891 476T1043 618T1096 824Q1096 999 980 1105T650 1212H365V425Z" />
<glyph unicode="&#xdf;" horiz-adv-x="1337" d="M486 -32V42H692Q807 42 901 98T1052 250T1108 461Q1108 578 1052 673T902 826T692 883H486V953H692Q791 953 873 1002T1004 1133T1053 1316Q1053 1416 1004 1498T873 1629T692 1678Q593 1678 511 1630T381 1499T332
1316V0H256V749H124V821H256V1315Q256 1436 315 1534T472 1691T692 1750Q813 1750 911 1692T1068 1535T1127 1316Q1127 1185 1054 1077T860 920Q958 886 1031 817T1145 656T1186 460Q1186 323 1120 212T942 34T692 -32H486Z" />
<glyph unicode="&#xe0;" horiz-adv-x="1430" d="M671 -32Q526 -32 410 38T227 232T160 512Q160 670 227 792T409 985T671 1056Q823 1056 944 981T1123 773V1024H1199V0H1123V252Q1060 119 941 44T671 -32ZM682 37Q813 37 913 97T1071 266T1129 512Q1129 651 1072
758T914 926T682 987Q553 987 452 927T293 759T235 512Q235 374 293 267T452 98T682 37ZM809 1209L633 1545L707 1595L860 1242L809 1209Z" />
<glyph unicode="&#xe1;" horiz-adv-x="1430" d="M671 -32Q526 -32 410 38T227 232T160 512Q160 670 227 792T409 985T671 1056Q823 1056 944 981T1123 773V1024H1199V0H1123V252Q1060 119 941 44T671 -32ZM682 37Q813 37 913 97T1071 266T1129 512Q1129 651 1072
758T914 926T682 987Q553 987 452 927T293 759T235 512Q235 374 293 267T452 98T682 37ZM754 1209L703 1242L856 1595L930 1545L754 1209Z" />
<glyph unicode="&#xe2;" horiz-adv-x="1430" d="M671 -32Q526 -32 410 38T227 232T160 512Q160 670 227 792T409 985T671 1056Q823 1056 944 981T1123 773V1024H1199V0H1123V252Q1060 119 941 44T671 -32ZM682 37Q813 37 913 97T1071 266T1129 512Q1129 651 1072
758T914 926T682 987Q553 987 452 927T293 759T235 512Q235 374 293 267T452 98T682 37ZM443 1408L406 1459L749 1710L1092 1459L1055 1408L749 1632L443 1408Z" />
<glyph unicode="&#xe3;" horiz-adv-x="1430" d="M671 -32Q526 -32 410 38T227 232T160 512Q160 670 227 792T409 985T671 1056Q823 1056 944 981T1123 773V1024H1199V0H1123V252Q1060 119 941 44T671 -32ZM682 37Q813 37 913 97T1071 266T1129 512Q1129 651 1072
758T914 926T682 987Q553 987 452 927T293 759T235 512Q235 374 293 267T452 98T682 37ZM948 1338Q880 1338 832 1362T743 1418T656 1474T548 1499Q465 1499 407 1452T313 1343L266 1385Q310 1460 380 1511T548 1563Q616 1563 665 1539T756 1483T843 1427T949 1403Q1021
1403 1082 1443T1184 1558L1231 1516Q1197 1459 1153 1419T1056 1359T948 1338Z" />
<glyph unicode="&#xe4;" horiz-adv-x="1430" d="M671 -32Q526 -32 410 38T227 232T160 512Q160 670 227 792T409 985T671 1056Q823 1056 944 981T1123 773V1024H1199V0H1123V252Q1060 119 941 44T671 -32ZM682 37Q813 37 913 97T1071 266T1129 512Q1129 651 1072
758T914 926T682 987Q553 987 452 927T293 759T235 512Q235 374 293 267T452 98T682 37ZM985 1371Q962 1371 945 1388T928 1428Q928 1452 945 1468T985 1485Q1009 1485 1025 1469T1042 1428Q1042 1405 1026 1388T985 1371ZM513 1371Q490 1371 473 1388T456 1428Q456
1452 473 1468T513 1485Q537 1485 553 1469T570 1428Q570 1405 554 1388T513 1371Z" />
<glyph unicode="&#xe5;" horiz-adv-x="1430" d="M671 -32Q526 -32 410 38T227 232T160 512Q160 670 227 792T409 985T671 1056Q823 1056 944 981T1123 773V1024H1199V0H1123V252Q1060 119 941 44T671 -32ZM682 37Q813 37 913 97T1071 266T1129 512Q1129 651 1072
758T914 926T682 987Q553 987 452 927T293 759T235 512Q235 374 293 267T452 98T682 37ZM749 1315Q692 1315 646 1338T573 1401T546 1494V1494Q546 1546 573 1587T646 1651T749 1674Q805 1674 851 1651T924 1587T951 1494Q951 1442 924 1402T851 1338T749 1315ZM749
1374Q810 1374 849 1408T889 1494Q889 1547 850 1580T749 1614Q688 1614 648 1581T608 1494V1494Q608 1442 648 1408T749 1374Z" />
<glyph unicode="&#xe6;" horiz-adv-x="2088" d="M546 -32Q433 -32 342 9T196 124T142 299Q142 398 195 473T341 590T548 632Q659 632 750 592T894 481V620Q894 796 804 893T556 990Q486 990 431 972T332 923T249 850L204 896Q275 983 367 1019T560 1056Q733 1056
830 968T950 753Q1016 887 1141 971T1421 1056Q1566 1056 1685 984T1875 790T1948 519Q1948 516 1948 514T1948 509H965Q965 372 1026 265T1195 96T1442 35Q1573 35 1679 91T1849 248L1908 214Q1834 97 1712 33T1440 -32Q1281 -32 1154 42T957 249Q933 163 875
100T732 2T546 -32ZM557 31Q652 31 730 64T854 159T901 302Q901 383 855 443T730 537T557 571Q462 571 384 538T260 444T214 302Q214 220 260 159T384 65T557 31ZM967 568H1873Q1861 688 1798 784T1637 936T1421 992Q1303 992 1204 936T1042 784T967 568Z" />
<glyph unicode="&#xe7;" horiz-adv-x="1177" d="M705 -32Q590 -32 490 8T316 121T199 294T157 512Q157 631 198 730T315 903T489 1016T705 1056Q807 1056 898 1025T1058 938L1018 886Q890 988 709 988Q570 988 462 927T293 757T231 512Q231 376 292 268T461 98T710
36Q798 36 876 62T1016 138L1058 86Q987 31 897 0T705 -32ZM688 -549Q608 -549 544 -513T445 -411L492 -383Q552 -492 689 -492Q768 -492 816 -453T865 -349Q865 -291 825 -255T721 -218Q685 -218 643 -229T570 -259L566 -256L652 11H711L650 -175Q681 -169 699
-168T733 -167Q817 -168 870 -219T923 -349Q923 -437 857 -493T688 -549Z" />
<glyph unicode="&#xe8;" horiz-adv-x="1353" d="M705 -32Q545 -32 421 39T227 232T156 506Q156 622 197 722T312 897T480 1014T684 1056Q825 1056 941 989T1129 806T1212 541Q1213 532 1213 525T1212 509H229Q229 372 290 265T460 96T707 35Q837 35 943 91T1114
248L1172 214Q1099 97 977 33T705 -32ZM232 572H1136Q1124 691 1061 785T900 934T686 989Q568 989 470 935T308 786T232 572ZM738 1181L562 1517L636 1567L789 1214L738 1181Z" />
<glyph unicode="&#xe9;" horiz-adv-x="1353" d="M705 -32Q545 -32 421 39T227 232T156 506Q156 622 197 722T312 897T480 1014T684 1056Q825 1056 941 989T1129 806T1212 541Q1213 532 1213 525T1212 509H229Q229 372 290 265T460 96T707 35Q837 35 943 91T1114
248L1172 214Q1099 97 977 33T705 -32ZM232 572H1136Q1124 691 1061 785T900 934T686 989Q568 989 470 935T308 786T232 572ZM683 1181L632 1214L785 1567L859 1517L683 1181Z" />
<glyph unicode="&#xea;" horiz-adv-x="1353" d="M705 -32Q545 -32 421 39T227 232T156 506Q156 622 197 722T312 897T480 1014T684 1056Q825 1056 941 989T1129 806T1212 541Q1213 532 1213 525T1212 509H229Q229 372 290 265T460 96T707 35Q837 35 943 91T1114
248L1172 214Q1099 97 977 33T705 -32ZM232 572H1136Q1124 691 1061 785T900 934T686 989Q568 989 470 935T308 786T232 572ZM371 1380L334 1431L677 1682L1020 1431L983 1380L677 1604L371 1380Z" />
<glyph unicode="&#xeb;" horiz-adv-x="1353" d="M705 -32Q545 -32 421 39T227 232T156 506Q156 622 197 722T312 897T480 1014T684 1056Q825 1056 941 989T1129 806T1212 541Q1213 532 1213 525T1212 509H229Q229 372 290 265T460 96T707 35Q837 35 943 91T1114
248L1172 214Q1099 97 977 33T705 -32ZM232 572H1136Q1124 691 1061 785T900 934T686 989Q568 989 470 935T308 786T232 572ZM913 1343Q890 1343 873 1360T856 1400Q856 1424 873 1440T913 1457Q937 1457 953 1441T970 1400Q970 1377 954 1360T913 1343ZM441 1343Q418
1343 401 1360T384 1400Q384 1424 401 1440T441 1457Q465 1457 481 1441T498 1400Q498 1377 482 1360T441 1343Z" />
<glyph unicode="&#xec;" horiz-adv-x="537" d="M231 0V1024H307V0H231ZM329 1179L153 1515L227 1565L380 1212L329 1179Z" />
<glyph unicode="&#xed;" horiz-adv-x="537" d="M231 0V1024H307V0H231ZM274 1179L223 1212L376 1565L450 1515L274 1179Z" />
<glyph unicode="&#xee;" horiz-adv-x="537" d="M231 0V1024H307V0H231ZM219 1378L182 1429L525 1680L868 1429L831 1378L525 1602L219 1378Z" />
<glyph unicode="&#xef;" horiz-adv-x="537" d="M231 0V1024H307V0H231ZM761 1341Q738 1341 721 1358T704 1398Q704 1422 721 1438T761 1455Q785 1455 801 1439T818 1398Q818 1375 802 1358T761 1341ZM289 1341Q266 1341 249 1358T232 1398Q232 1422 249 1438T289
1455Q313 1455 329 1439T346 1398Q346 1375 330 1358T289 1341Z" />
<glyph unicode="&#xf0;" horiz-adv-x="1444" d="M710 -32Q553 -32 428 37T230 229T157 512Q157 634 199 734T317 906T493 1018T708 1057Q855 1057 973 992T1158 813Q1120 1045 1023 1217T782 1504L627 1349L580 1397L726 1543Q666 1588 599 1622T459 1682L483
1750Q564 1721 638 1683T779 1597L933 1750L980 1702L833 1557Q938 1471 1018 1362T1152 1121T1234 836T1262 512Q1262 352 1190 230T992 38T710 -32ZM710 37Q848 37 956 98T1126 266T1189 512Q1189 650 1127 757T956 926T710 987Q571 987 463 926T293 758T231
512Q231 374 293 267T463 98T710 37Z" />
<glyph unicode="&#xf1;" horiz-adv-x="1241" d="M231 0V1024H307V873Q341 947 428 1001T652 1056Q771 1056 855 1008T983 866T1028 635V0H952V624Q952 803 871 896T639 989Q534 989 460 948T346 839T307 694V0H231ZM842 1338Q774 1338 726 1362T637 1418T550 1474T442
1499Q359 1499 301 1452T207 1343L160 1385Q204 1460 274 1511T442 1563Q510 1563 559 1539T650 1483T737 1427T843 1403Q915 1403 976 1443T1078 1558L1125 1516Q1091 1459 1047 1419T950 1359T842 1338Z" />
<glyph unicode="&#xf2;" horiz-adv-x="1419" d="M709 -32Q553 -32 428 37T230 228T157 512Q157 673 230 795T428 987T709 1056Q866 1056 990 987T1188 796T1262 512Q1262 351 1189 229T991 37T709 -32ZM709 40Q847 40 954 101T1123 268T1185 512Q1185 649 1124
755T955 923T709 984Q572 984 465 923T296 756T234 512Q234 375 295 269T464 101T709 40ZM770 1209L594 1545L668 1595L821 1242L770 1209Z" />
<glyph unicode="&#xf3;" horiz-adv-x="1419" d="M709 -32Q553 -32 428 37T230 228T157 512Q157 673 230 795T428 987T709 1056Q866 1056 990 987T1188 796T1262 512Q1262 351 1189 229T991 37T709 -32ZM709 40Q847 40 954 101T1123 268T1185 512Q1185 649 1124
755T955 923T709 984Q572 984 465 923T296 756T234 512Q234 375 295 269T464 101T709 40ZM715 1209L664 1242L817 1595L891 1545L715 1209Z" />
<glyph unicode="&#xf4;" horiz-adv-x="1419" d="M709 -32Q553 -32 428 37T230 228T157 512Q157 673 230 795T428 987T709 1056Q866 1056 990 987T1188 796T1262 512Q1262 351 1189 229T991 37T709 -32ZM709 40Q847 40 954 101T1123 268T1185 512Q1185 649 1124
755T955 923T709 984Q572 984 465 923T296 756T234 512Q234 375 295 269T464 101T709 40ZM403 1408L366 1459L709 1710L1052 1459L1015 1408L709 1632L403 1408Z" />
<glyph unicode="&#xf5;" horiz-adv-x="1419" d="M709 -32Q553 -32 428 37T230 228T157 512Q157 673 230 795T428 987T709 1056Q866 1056 990 987T1188 796T1262 512Q1262 351 1189 229T991 37T709 -32ZM709 40Q847 40 954 101T1123 268T1185 512Q1185 649 1124
755T955 923T709 984Q572 984 465 923T296 756T234 512Q234 375 295 269T464 101T709 40ZM909 1338Q841 1338 793 1362T704 1418T617 1474T509 1499Q426 1499 368 1452T274 1343L227 1385Q271 1460 341 1511T509 1563Q577 1563 626 1539T717 1483T804 1427T910
1403Q982 1403 1043 1443T1145 1558L1192 1516Q1158 1459 1114 1419T1017 1359T909 1338Z" />
<glyph unicode="&#xf6;" horiz-adv-x="1419" d="M709 -32Q553 -32 428 37T230 228T157 512Q157 673 230 795T428 987T709 1056Q866 1056 990 987T1188 796T1262 512Q1262 351 1189 229T991 37T709 -32ZM709 40Q847 40 954 101T1123 268T1185 512Q1185 649 1124
755T955 923T709 984Q572 984 465 923T296 756T234 512Q234 375 295 269T464 101T709 40ZM945 1371Q922 1371 905 1388T888 1428Q888 1452 905 1468T945 1485Q969 1485 985 1469T1002 1428Q1002 1405 986 1388T945 1371ZM473 1371Q450 1371 433 1388T416 1428Q416
1452 433 1468T473 1485Q497 1485 513 1469T530 1428Q530 1405 514 1388T473 1371Z" />
<glyph unicode="&#xf7;" horiz-adv-x="1484" d="M203 797V863H1228V797H203ZM715 272Q693 272 677 288T660 328Q660 351 676 367T715 384Q739 384 755 368T771 328Q771 305 755 289T715 272ZM715 1276Q693 1276 677 1293T660 1332Q660 1355 676 1371T715 1388Q739
1388 755 1372T771 1332Q771 1310 755 1293T715 1276Z" />
<glyph unicode="&#xf8;" horiz-adv-x="1419" d="M709 -32Q553 -32 428 37T230 228T157 512Q157 673 230 795T428 987T709 1056Q866 1056 990 987T1188 796T1262 512Q1262 351 1189 229T991 37T709 -32ZM709 40Q847 40 954 101T1123 268T1185 512Q1185 649 1124
755T955 923T709 984Q572 984 465 923T296 756T234 512Q234 375 295 269T464 101T709 40ZM225 -32L1117 1056H1194L302 -32H225Z" />
<glyph unicode="&#xf9;" horiz-adv-x="1211" d="M606 -32Q393 -32 304 70T214 416V1024H290V422Q290 214 362 125T606 36Q776 36 849 125T922 422V1024H998V416Q998 172 909 70T606 -32ZM666 1179L490 1515L564 1565L717 1212L666 1179Z" />
<glyph unicode="&#xfa;" horiz-adv-x="1211" d="M606 -32Q393 -32 304 70T214 416V1024H290V422Q290 214 362 125T606 36Q776 36 849 125T922 422V1024H998V416Q998 172 909 70T606 -32ZM611 1179L560 1212L713 1565L787 1515L611 1179Z" />
<glyph unicode="&#xfb;" horiz-adv-x="1211" d="M606 -32Q393 -32 304 70T214 416V1024H290V422Q290 214 362 125T606 36Q776 36 849 125T922 422V1024H998V416Q998 172 909 70T606 -32ZM300 1378L263 1429L606 1680L949 1429L912 1378L606 1602L300 1378Z" />
<glyph unicode="&#xfc;" horiz-adv-x="1211" d="M606 -32Q393 -32 304 70T214 416V1024H290V422Q290 214 362 125T606 36Q776 36 849 125T922 422V1024H998V416Q998 172 909 70T606 -32ZM842 1341Q819 1341 802 1358T785 1398Q785 1422 802 1438T842 1455Q866
1455 882 1439T899 1398Q899 1375 883 1358T842 1341ZM370 1341Q347 1341 330 1358T313 1398Q313 1422 330 1438T370 1455Q394 1455 410 1439T427 1398Q427 1375 411 1358T370 1341Z" />
<glyph unicode="&#xfd;" horiz-adv-x="1220" d="M367 -520L585 -19L97 1024H182L627 67L1035 1024H1120L450 -520H367ZM615 1179L564 1212L717 1565L791 1515L615 1179Z" />
<glyph unicode="&#xfe;" horiz-adv-x="1430" d="M231 -520V1720H307V773Q369 903 487 979T757 1056Q902 1056 1018 987T1202 794T1270 512Q1270 353 1203 230T1019 38T757 -32Q606 -32 488 45T307 252V-520H231ZM748 37Q877 37 978 97T1137 265T1195 512Q1195
652 1137 759T977 927T748 987Q618 987 517 927T359 760T301 512Q301 373 358 266T517 98T748 37Z" />
<glyph unicode="&#xff;" horiz-adv-x="1220" d="M367 -520L585 -19L97 1024H182L627 67L1035 1024H1120L450 -520H367ZM846 1341Q823 1341 806 1358T789 1398Q789 1422 806 1438T846 1455Q870 1455 886 1439T903 1398Q903 1375 887 1358T846 1341ZM374 1341Q351
1341 334 1358T317 1398Q317 1422 334 1438T374 1455Q398 1455 414 1439T431 1398Q431 1375 415 1358T374 1341Z" />
<glyph unicode="&#x2013;" horiz-adv-x="1258" d="M231 547V611H1027V547H231Z" />
<glyph unicode="&#x2014;" horiz-adv-x="2007" d="M231 547V611H1777V547H231Z" />
<glyph unicode="&#x2018;" horiz-adv-x="621" d="M313 1396Q284 1396 265 1416T246 1475Q246 1530 277 1590T345 1678L360 1664Q347 1645 338 1622T323 1571T317 1512Q341 1511 356 1495T372 1454Q372 1429 356 1413T313 1396Z" />
<glyph unicode="&#x2019;" horiz-adv-x="619" d="M276 1398L260 1412Q274 1432 283 1455T297 1505T303 1564Q281 1565 265 1582T248 1622Q248 1647 264 1663T308 1680Q336 1680 355 1660T375 1601Q375 1547 344 1487T276 1398Z" />
<glyph unicode="&#x201a;" horiz-adv-x="713" d="M273 -195L257 -181Q271 -161 280 -138T294 -88T300 -29Q278 -28 262 -11T245 29Q245 54 261 70T305 87Q333 87 352 67T372 8Q372 -46 341 -106T273 -195Z" />
<glyph unicode="&#x201c;" horiz-adv-x="810" d="M494 1396Q465 1396 446 1416T427 1475Q427 1530 458 1590T526 1678L541 1664Q528 1645 519 1622T504 1571T499 1512Q522 1511 538 1495T554 1454Q554 1429 538 1413T494 1396ZM320 1396Q291 1396 272 1416T253
1475Q253 1530 284 1590T352 1678L367 1664Q354 1645 345 1622T331 1571T325 1512Q348 1511 364 1495T380 1454Q380 1429 364 1413T320 1396Z" />
<glyph unicode="&#x201d;" horiz-adv-x="809" d="M456 1398L441 1412Q455 1432 464 1455T478 1505T484 1564Q461 1565 445 1582T429 1622Q429 1647 445 1663T488 1680Q517 1680 536 1660T555 1601Q555 1547 524 1487T456 1398ZM282 1398L267 1412Q281 1432 290
1455T304 1505T310 1564Q287 1565 271 1582T255 1622Q255 1647 271 1663T314 1680Q343 1680 362 1660T381 1601Q381 1547 350 1487T282 1398Z" />
<glyph unicode="&#x201e;" horiz-adv-x="772" d="M264 -195L248 -181Q262 -161 271 -138T285 -88T291 -29Q268 -28 252 -11T236 29Q236 54 252 70T296 87Q324 87 343 67T363 8Q363 -46 332 -106T264 -195ZM438 -195L422 -181Q436 -161 445 -138T459 -88T465 -29Q442
-28 426 -11T410 29Q410 54 426 70T470 87Q498 87 517 67T537 8Q537 -46 506 -106T438 -195Z" />
<glyph unicode="&#x2022;" horiz-adv-x="775" d="M388 634Q366 634 347 645T317 674T306 714Q306 736 317 754T347 783T388 794Q410 794 428 783T457 754T468 714Q468 692 457 674T428 645T388 634Z" />
<glyph unicode="&#x2039;" horiz-adv-x="761" d="M542 56L152 556L542 1056L597 1013L241 556L597 99L542 56Z" />
<glyph unicode="&#x203a;" horiz-adv-x="761" d="M219 56L163 99L520 556L163 1013L219 1056L609 556L219 56Z" />
</font>
</defs>
</svg>
