<?xml version="1.0" standalone="no"?>
<!DOCTYPE svg PUBLIC "-//W3C//DTD SVG 1.1//EN" "http://www.w3.org/Graphics/SVG/1.1/DTD/svg11.dtd">
<svg xmlns="http://www.w3.org/2000/svg">
<defs >
<font id="Spartan" horiz-adv-x="1346" ><font-face
    font-family="Spartan Thin"
    units-per-em="2000"
    panose-1="0 0 0 0 0 0 0 0 0 0"
    ascent="1720"
    descent="-520"
    alphabetic="0" />
<glyph unicode=" " horiz-adv-x="539" />
<glyph unicode="!" horiz-adv-x="777" d="M276 506L236 1720H541L501 506H276ZM387 -32Q332 -32 287 -5T214 67T187 168Q187 224 214 269T286 341T387 368Q443 368 488 341T560 269T587 168Q587 113 560 68T488 -5T387 -32Z" />
<glyph unicode="&quot;" horiz-adv-x="1069" d="M640 1018L585 1675H881L825 1018H640ZM244 1018L189 1675H485L429 1018H244Z" />
<glyph unicode="#" horiz-adv-x="1563" d="M295 0L348 434H151V643H373L414 961H151V1171H439L493 1604H703L647 1171H1004L1057 1604H1267L1212 1171H1412V961H1188L1146 643H1412V434H1120L1068 0H860L912 434H556L503 0H295ZM582 643H938L979 961H623L582 643Z" />
<glyph unicode="$" horiz-adv-x="1438" d="M655 -276V-30Q574 -27 492 -8T335 44T198 119T95 210L261 477Q321 414 397 368T555 295T712 269Q784 269 836 292T918 359T947 461Q947 519 920 561T843 639T723 707T569 778Q470 822 394 880T276 1015T233 1194Q233
1303 284 1402T429 1574T655 1669V1926H844V1675Q956 1664 1065 1618T1244 1509L1108 1254Q1043 1313 951 1349T769 1386Q703 1386 653 1364T576 1302T549 1211Q549 1152 584 1114T675 1048T792 997Q918 946 1013 894T1172 781T1268 645T1300 472Q1300 339 1244
235T1086 66T844 -19V-276H655Z" />
<glyph unicode="%" horiz-adv-x="2049" d="M533 892Q409 892 310 942T153 1081T95 1286Q95 1402 153 1491T311 1630T533 1680Q657 1680 756 1630T913 1491T971 1286Q971 1170 913 1081T756 942T533 892ZM441 0L1401 1650H1610L650 0H441ZM533 1078Q591 1078 638
1104T714 1178T743 1286Q743 1347 715 1394T639 1467T533 1494Q475 1494 428 1468T352 1394T324 1286Q324 1225 352 1178T427 1105T533 1078ZM1515 -30Q1392 -30 1293 20T1135 159T1077 364Q1077 480 1135 569T1292 708T1515 758Q1639 758 1738 708T1895 569T1953
364Q1953 248 1895 159T1738 20T1515 -30ZM1515 156Q1573 156 1620 182T1696 256T1725 364Q1725 425 1697 471T1621 544T1515 571Q1457 571 1410 545T1334 472T1306 364Q1306 303 1334 256T1409 183T1515 156Z" />
<glyph unicode="&amp;" horiz-adv-x="1832" d="M646 -32Q486 -32 365 24T175 181T107 417Q107 575 206 692T507 894Q441 973 402 1035T345 1155T328 1272Q328 1402 393 1493T568 1633T812 1682Q932 1682 1021 1647T1171 1552T1261 1420T1291 1274Q1291 1148 1206
1045T960 857L1236 566Q1262 586 1293 615T1357 677T1417 739T1465 790L1665 598Q1608 533 1547 468T1439 360L1780 0H1373L1197 185Q1080 82 942 25T646 -32ZM690 276Q766 276 842 309T986 404L674 720Q580 684 526 616T472 465Q472 405 500 363T579 298T690 276ZM796
1035Q866 1073 913 1110T983 1187T1007 1277Q1007 1328 984 1367T920 1429T827 1452Q777 1452 738 1430T678 1370T656 1281Q656 1241 671 1203T716 1124T796 1035Z" />
<glyph unicode="&apos;" horiz-adv-x="673" d="M244 1018L189 1675H485L429 1018H244Z" />
<glyph unicode="(" horiz-adv-x="737" d="M470 -520Q412 -444 350 -330T235 -71T148 248T115 614Q115 808 148 981T235 1301T350 1561T470 1750L668 1665Q612 1583 549 1433T442 1076T398 615Q398 377 438 174T541 -184T668 -435L470 -520Z" />
<glyph unicode=")" horiz-adv-x="736" d="M267 -520L68 -435Q153 -310 213 -143T305 218T337 614Q337 814 306 1006T215 1368T68 1665L267 1750Q438 1520 528 1224T619 614Q619 309 531 13T267 -520Z" />
<glyph unicode="*" horiz-adv-x="992" d="M362 1086L247 1165L373 1351L159 1427L203 1565L418 1498V1720H571V1498L787 1565L831 1427L617 1351L743 1165L628 1086L494 1260L362 1086Z" />
<glyph unicode="+" horiz-adv-x="1341" d="M538 316V697H157V962H538V1343H803V962H1184V697H803V316H538Z" />
<glyph unicode="," horiz-adv-x="756" d="M292 -345L205 -274Q231 -249 259 -204T309 -108T337 -15Q266 2 226 52T186 172Q186 259 242 313T388 368Q479 368 533 311T587 153Q587 33 509 -99T292 -345Z" />
<glyph unicode="-" horiz-adv-x="1005" d="M181 447V711H825V447H181Z" />
<glyph unicode="." horiz-adv-x="816" d="M407 -32Q351 -32 306 -5T234 67T207 168Q207 224 233 269T306 341T407 368Q463 368 508 341T580 269T607 168Q607 113 580 68T508 -5T407 -32Z" />
<glyph unicode="/" horiz-adv-x="1014" d="M-36 -240L788 1720H1050L226 -240H-36Z" />
<glyph unicode="0" horiz-adv-x="1579" d="M790 -32Q588 -32 435 76T197 377T111 824Q111 1079 196 1271T435 1572T790 1680Q992 1680 1144 1572T1382 1272T1468 824Q1468 570 1383 377T1145 76T790 -32ZM790 253Q894 253 969 322T1085 519T1126 824Q1126 1001
1085 1129T969 1326T790 1395Q686 1395 611 1326T494 1129T453 824Q453 648 494 520T610 322T790 253Z" />
<glyph unicode="1" horiz-adv-x="834" d="M294 0V1332H48V1650H618V0H294Z" />
<glyph unicode="2" horiz-adv-x="1450" d="M66 0V166Q261 315 407 436T656 657T823 837T916 987T946 1117Q946 1193 910 1255T813 1355T674 1392Q600 1392 538 1355T428 1244T350 1065L78 1192Q108 1305 164 1395T300 1550T479 1648T693 1682Q868 1682 1004 1610T1217
1412T1295 1127Q1295 1047 1273 970T1204 815T1082 654T902 481T656 288H1325V0H66Z" />
<glyph unicode="3" horiz-adv-x="1348" d="M640 -32Q492 -32 369 19T161 162T42 379L342 521Q349 441 386 380T489 284T641 249Q761 249 832 315T904 490Q904 568 869 629T775 726T642 762Q600 762 570 750V966H645Q710 966 762 998T846 1085T878 1201Q878 1262
847 1311T762 1389T643 1418Q577 1418 521 1388T427 1306T380 1186L123 1306Q151 1418 226 1502T410 1633T649 1680Q800 1680 918 1618T1105 1450T1173 1207Q1173 1137 1153 1076T1094 965T1002 879Q1072 842 1123 785T1201 655T1228 491Q1228 341 1154 223T948
36T640 -32Z" />
<glyph unicode="4" horiz-adv-x="1418" d="M833 0V302H10V404L817 1650H1137V587H1329V302H1137V0H833ZM450 587H833V1215L450 587Z" />
<glyph unicode="5" horiz-adv-x="1370" d="M648 -30Q516 -30 399 11T195 132T65 328L322 452Q351 356 437 298T641 240Q732 240 797 275T898 375T934 522Q934 625 881 698T730 811T499 851Q407 851 324 826T169 753L310 1650H1152V1366H586L537 1043Q765 1092
947 1011Q1042 979 1111 913T1219 752T1258 542Q1258 364 1177 236T958 39T648 -30Z" />
<glyph unicode="6" horiz-adv-x="1405" d="M723 -32Q580 -32 462 13T259 138T128 324T82 553Q82 690 148 847T330 1143L749 1650H1142L656 1074Q687 1090 725 1098T806 1106Q918 1106 1013 1065T1178 947T1288 768T1328 540Q1328 370 1252 241T1040 40T723 -32ZM708
238Q793 238 860 276T965 380T1004 530Q1004 616 966 683T861 789T712 828Q630 828 563 789T457 681T417 528Q417 446 453 381T555 277T708 238Z" />
<glyph unicode="7" horiz-adv-x="1317" d="M51 0L826 1366H93V1650H1305V1554L433 0H51Z" />
<glyph unicode="8" horiz-adv-x="1412" d="M706 -32Q540 -32 405 31T190 204T110 456Q110 600 191 716T404 887Q298 943 239 1041T179 1251Q179 1375 250 1471T441 1624T705 1680Q800 1680 894 1652T1064 1568T1187 1434T1233 1252Q1233 1137 1172 1040T1008 887Q1141
831 1221 715T1302 455Q1302 314 1223 204T1008 31T706 -32ZM706 249Q778 249 833 280T918 367T948 490Q948 561 917 616T831 703T706 735Q637 735 582 704T496 618T464 491Q464 421 494 367T579 281T706 249ZM706 1006Q768 1006 816 1034T893 1110T921 1219Q921
1280 893 1329T816 1406T706 1434Q644 1434 596 1406T520 1329T491 1219Q491 1158 519 1110T596 1034T706 1006Z" />
<glyph unicode="9" horiz-adv-x="1405" d="M261 0L751 581Q692 544 605 544Q503 544 408 585T238 703T119 883T75 1114Q75 1272 147 1400T354 1605T679 1682Q872 1682 1016 1603T1240 1392T1321 1097Q1321 1000 1305 922T1257 776T1178 643T1072 507L653 0H261ZM695
824Q756 824 808 846T900 909T961 1004T984 1120Q984 1204 947 1270T844 1373T695 1410Q610 1410 544 1373T439 1270T400 1120Q400 1036 438 969T544 863T695 824Z" />
<glyph unicode=":" horiz-adv-x="783" d="M388 751Q332 751 287 778T215 850T188 951Q188 1007 215 1052T287 1124T388 1151Q444 1151 489 1124T561 1052T588 951Q588 896 561 851T489 778T388 751ZM388 -32Q332 -32 287 -5T215 67T188 168Q188 224 215 269T287
341T388 368Q444 368 489 341T561 269T588 168Q588 113 561 68T489 -5T388 -32Z" />
<glyph unicode=";" horiz-adv-x="762" d="M388 751Q332 751 287 778T215 850T188 951Q188 1007 215 1052T287 1124T388 1151Q444 1151 489 1125T561 1053T588 951Q588 896 561 851T489 778T388 751ZM292 -345L205 -274Q231 -249 259 -204T309 -108T337 -15Q266
2 226 52T186 172Q186 259 242 313T388 368Q479 368 533 311T587 153Q587 33 509 -99T292 -345Z" />
<glyph unicode="&lt;" horiz-adv-x="1422" d="M1221 270L129 730V934L1221 1394V1147L455 832L1221 517V270Z" />
<glyph unicode="=" horiz-adv-x="1568" d="M270 930V1195H1297V930H270ZM270 466V731H1297V466H270Z" />
<glyph unicode="&gt;" horiz-adv-x="1422" d="M201 270V517L968 832L201 1147V1394L1294 934V730L201 270Z" />
<glyph unicode="?" horiz-adv-x="1217" d="M571 -32Q516 -32 471 -5T399 67T372 168Q372 224 398 269T470 341T571 368Q627 368 672 342T745 270T772 168Q772 113 745 68T673 -5T571 -32ZM431 512V968Q452 963 483 959T551 955Q640 955 704 981T804 1059T839 1183Q839
1253 808 1303T717 1381T576 1408Q465 1408 393 1354T305 1198L51 1251Q73 1385 148 1481T336 1628T582 1680Q741 1680 864 1612T1057 1431T1128 1183Q1128 1062 1073 959T924 787T715 699V512H431Z" />
<glyph unicode="@" horiz-adv-x="2006" d="M1032 -483Q848 -483 687 -420T403 -242T211 29T142 373Q142 562 211 718T403 989T687 1166T1031 1229Q1206 1229 1359 1173T1630 1012T1813 761T1880 436Q1880 323 1850 243T1768 111T1651 37T1515 13Q1434 13 1369
38T1257 109Q1214 42 1141 -2T969 -46Q860 -46 774 7T638 153T587 362Q587 477 637 569T774 716T974 770Q1058 770 1129 736T1245 645V747H1438V323Q1438 294 1447 265T1481 216T1552 196Q1589 196 1618 218T1664 289T1681 421Q1681 573 1624 683T1473 866T1265
972T1037 1007Q889 1007 771 955T569 814T441 612T396 376Q396 247 444 136T579 -59T782 -190T1034 -237Q1179 -237 1281 -188T1437 -79L1640 -212Q1590 -280 1506 -342T1303 -443T1032 -483ZM1025 141Q1090 141 1139 169T1216 248T1245 363Q1245 430 1216 481T1138
560T1027 589Q966 589 917 560T838 480T809 362Q809 297 837 247T914 169T1025 141Z" />
<glyph unicode="A" horiz-adv-x="1665" d="M19 0L682 1650H983L1645 0H1296L1156 376H508L368 0H19ZM619 660H1046L832 1213L619 660Z" />
<glyph unicode="B" horiz-adv-x="1324" d="M139 0V1650H612Q850 1650 985 1546T1120 1235Q1120 978 908 872Q1081 845 1173 740T1266 463Q1266 319 1201 215T1016 56T732 0H139ZM462 982H537Q668 982 738 1036T808 1193Q808 1296 740 1347T537 1399H462V982ZM462
252H622Q774 252 850 308T927 473Q927 584 849 643T622 703H462V252Z" />
<glyph unicode="C" horiz-adv-x="1530" d="M968 -32Q781 -32 617 34T328 217T133 490T63 823Q63 1002 133 1157T328 1430T616 1614T966 1680Q1118 1680 1255 1637T1491 1524L1351 1249Q1284 1302 1188 1332T987 1362Q864 1362 760 1321T578 1207T457 1036T414
824Q414 710 457 612T577 441T759 327T987 286Q1092 286 1188 316T1351 399L1491 124Q1397 56 1260 12T968 -32Z" />
<glyph unicode="D" horiz-adv-x="1612" d="M225 0V1650H678Q854 1650 1005 1587T1269 1411T1446 1148T1510 824Q1510 649 1447 500T1271 238T1006 63T678 0H225ZM549 290H642Q754 290 849 330T1014 442T1123 611T1162 825Q1162 940 1123 1037T1014 1207T849 1320T642
1360H549V290Z" />
<glyph unicode="E" horiz-adv-x="1314" d="M225 0V1650H1143V1366H549V969H1119V685H549V284H1143V0H225Z" />
<glyph unicode="F" horiz-adv-x="1254" d="M225 0V1650H1152V1366H471L549 1437V879L471 969H1107V685H471L549 775V0H225Z" />
<glyph unicode="G" horiz-adv-x="1776" d="M915 -32Q745 -32 598 33T341 214T169 487T107 825Q107 999 165 1153T332 1426T595 1612T940 1680Q1048 1680 1157 1656T1368 1586T1550 1472L1398 1221Q1311 1302 1188 1346T944 1391Q826 1391 736 1350T583 1233T489
1058T457 839Q457 710 493 605T593 424T744 307T931 266Q1011 266 1085 292T1218 367T1310 480T1344 622V647H911V898H1674V648Q1674 497 1612 373T1441 158T1197 18T915 -32Z" />
<glyph unicode="H" horiz-adv-x="1715" d="M225 0V1650H549V969H1166V1650H1489V0H1166V685H549V0H225Z" />
<glyph unicode="I" horiz-adv-x="775" d="M225 0V1650H549V0H225Z" />
<glyph unicode="J" horiz-adv-x="1133" d="M433 -32Q203 -32 37 124L145 392Q268 278 381 278Q485 278 543 350T602 548V1650H926V464Q926 228 795 98T433 -32Z" />
<glyph unicode="K" horiz-adv-x="1646" d="M225 0V1650H549V962L1154 1650H1550L846 856L1650 0H1202L549 697V0H225Z" />
<glyph unicode="L" horiz-adv-x="1184" d="M225 0V1650H549V284H1145V0H225Z" />
<glyph unicode="M" horiz-adv-x="2101" d="M149 0L313 1650H657L1051 618L1445 1650H1789L1953 0H1629L1527 1068L1150 41H951L575 1068L472 0H149Z" />
<glyph unicode="N" horiz-adv-x="1809" d="M225 0V1650H549L1260 540V1650H1584V0H1260L549 1110V0H225Z" />
<glyph unicode="O" horiz-adv-x="1873" d="M937 -32Q764 -32 613 34T348 217T170 490T105 824Q105 1002 169 1157T348 1430T613 1614T937 1680Q1110 1680 1261 1614T1526 1431T1704 1158T1769 824Q1769 646 1705 491T1526 218T1261 34T937 -32ZM936 280Q1042 280
1130 320T1283 433T1384 605T1420 824Q1420 943 1384 1042T1283 1215T1130 1328T936 1368Q832 1368 744 1328T590 1215T490 1043T454 824Q454 705 489 606T590 433T743 320T936 280Z" />
<glyph unicode="P" horiz-adv-x="1416" d="M225 0V1650H787Q948 1650 1073 1594T1270 1428T1342 1152Q1342 988 1270 872T1073 695T787 633H549V0H225ZM549 892H687Q772 892 843 917T959 997T1003 1142Q1003 1233 959 1287T844 1366T687 1391H549V892Z" />
<glyph unicode="Q" horiz-adv-x="1916" d="M1695 -54Q1616 -24 1538 16T1381 106Q1176 -32 923 -32Q749 -32 598 33T334 216T156 488T92 822Q92 1001 156 1157T335 1430T600 1614T924 1680Q1098 1680 1249 1614T1514 1431T1692 1158T1756 824Q1756 686 1715 560T1593
330Q1656 301 1717 277T1838 235L1695 -54ZM923 280Q971 280 1016 292T1100 325Q1036 381 978 441T870 564L1008 736Q1140 597 1296 491Q1350 558 1378 644T1407 824Q1407 943 1372 1042T1272 1215T1119 1328T924 1368Q819 1368 731 1328T577 1215T477 1042T441
822Q441 702 476 603T575 432T728 320T923 280Z" />
<glyph unicode="R" horiz-adv-x="1509" d="M225 0V1650H787Q956 1650 1080 1591T1273 1420T1342 1151Q1342 1027 1298 928T1172 760T973 659L1513 0H1102L626 622H549V0H225ZM549 892H687Q788 892 858 921T965 1006T1003 1142Q1003 1262 921 1326T687 1391H549V892Z" />
<glyph unicode="S" horiz-adv-x="1363" d="M655 -32Q540 -32 443 -7T270 57T138 137T51 209L217 477Q250 448 296 412T399 344T522 290T664 268Q734 268 787 290T872 355T903 464Q903 523 878 564T805 639T686 705T525 777Q458 807 398 845T290 935T216 1050T188
1195Q188 1290 226 1377T334 1532T502 1640T720 1680Q810 1680 900 1656T1068 1593T1200 1508L1065 1254Q1022 1291 968 1320T852 1368T727 1386Q656 1386 607 1361T531 1295T504 1202Q504 1160 521 1131T571 1080T648 1039T747 997Q863 948 957 900T1118 794T1220
657T1256 471Q1256 313 1181 200T970 28T655 -32Z" />
<glyph unicode="T" horiz-adv-x="1237" d="M457 0V1364H39V1650H1199V1364H780V0H457Z" />
<glyph unicode="U" horiz-adv-x="1651" d="M825 -32Q515 -32 356 123T197 585V1650H521V678Q521 469 592 378T825 286Q986 286 1057 377T1129 678V1650H1453V585Q1453 279 1295 124T825 -32Z" />
<glyph unicode="V" horiz-adv-x="1672" d="M709 0L17 1650H383L836 487L1290 1650H1655L963 0H709Z" />
<glyph unicode="W" horiz-adv-x="2376" d="M518 0L43 1650H403L715 444L1067 1650H1310L1661 444L1973 1650H2334L1858 0H1498L1188 1025L879 0H518Z" />
<glyph unicode="X" horiz-adv-x="1669" d="M9 0L635 889L111 1650H497L834 1158L1171 1650H1557L1033 889L1659 0H1258L834 608L410 0H9Z" />
<glyph unicode="Y" horiz-adv-x="1516" d="M596 0V735L-3 1650H387L758 1065L1129 1650H1519L920 735V0H596Z" />
<glyph unicode="Z" horiz-adv-x="1544" d="M40 0L918 1365H156V1650H1486L608 285H1433V0H40Z" />
<glyph unicode="[" horiz-adv-x="850" d="M216 -520V1720H808V1515H482V-315H808V-520H216Z" />
<glyph unicode="\" horiz-adv-x="1014" d="M788 0L-36 1720H226L1050 0H788Z" />
<glyph unicode="]" horiz-adv-x="850" d="M42 -520V-315H369V1515H42V1720H634V-520H42Z" />
<glyph unicode="^" horiz-adv-x="1183" d="M98 1210L512 1682H671L1085 1210H808L591 1464L375 1210H98Z" />
<glyph unicode="_" horiz-adv-x="1387" d="M181 -202V-53H1207V-202H181Z" />
<glyph unicode="`" horiz-adv-x="536" d="M353 1108L0 1500L206 1655L483 1214L353 1108Z" />
<glyph unicode="a" horiz-adv-x="1453" d="M608 -32Q467 -32 352 38T169 232T101 514Q101 668 166 790T345 984T608 1056Q717 1056 811 1015T966 899V1024H1273V0H966V135Q896 54 805 11T608 -32ZM699 229Q779 229 841 265T938 366T973 512Q973 595 938 658T841
758T699 795Q620 795 558 759T460 658T424 512Q424 430 459 366T557 266T699 229Z" />
<glyph unicode="b" horiz-adv-x="1454" d="M848 -32Q742 -32 649 12T488 135V0H181V1720H488V899Q549 973 641 1014T840 1056Q988 1056 1104 985T1286 791T1352 512Q1352 353 1284 230T1102 38T848 -32ZM756 229Q837 229 898 265T994 365T1029 510Q1029 592 993
656T896 758T756 795Q677 795 615 758T516 657T480 510Q480 429 515 366T613 266T756 229Z" />
<glyph unicode="c" horiz-adv-x="1064" d="M660 -32Q543 -32 440 10T257 126T133 299T88 511Q88 620 130 718T250 892T432 1012T659 1056Q758 1056 849 1028T997 956L892 749Q817 804 706 804Q611 804 545 762T445 653T410 512Q410 431 447 365T551 259T708 220Q763
220 811 235T892 275L997 68Q940 25 850 -3T660 -32Z" />
<glyph unicode="d" horiz-adv-x="1453" d="M605 -32Q466 -32 352 37T169 230T101 512Q101 668 167 790T348 984T613 1056Q721 1056 813 1015T966 899V1720H1273V0H966V135Q898 56 805 12T605 -32ZM697 229Q778 229 840 265T937 366T973 511Q973 593 938 657T840
758T698 795Q619 795 558 758T460 657T424 510Q424 429 459 366T556 266T697 229Z" />
<glyph unicode="e" horiz-adv-x="1292" d="M673 -32Q507 -32 376 39T167 234T90 512Q90 626 133 725T255 898T436 1014T659 1056Q819 1056 939 990T1127 805T1195 530Q1195 517 1195 508T1191 472H406Q406 394 441 336T541 246T690 213Q770 213 831 244T950 343L1171
232Q1099 108 967 38T673 -32ZM417 642H893Q883 701 851 744T768 810T655 833Q588 833 537 810T455 744T417 642Z" />
<glyph unicode="f" horiz-adv-x="821" d="M225 0V791H88V1024H225V1278Q225 1422 270 1528T400 1692T603 1750Q677 1750 748 1728T869 1665L763 1450Q716 1479 656 1479Q604 1479 578 1453T542 1380T532 1271V1024H774V791H532V0H225Z" />
<glyph unicode="g" horiz-adv-x="1453" d="M674 -550Q467 -550 326 -475T121 -252L371 -130Q413 -201 495 -243T673 -285Q760 -285 826 -251T929 -154T966 -9V135Q898 56 805 12T605 -32Q466 -32 352 37T169 230T101 512Q101 668 167 790T349 984T613 1056Q721
1056 813 1015T966 899V1024H1273V-28Q1273 -179 1208 -297T1009 -482T674 -550ZM697 229Q778 229 840 265T938 365T973 510Q973 593 938 657T840 758T699 795Q620 795 558 758T460 657T424 510Q424 429 459 366T556 266T697 229Z" />
<glyph unicode="h" horiz-adv-x="1390" d="M181 0V1720H488V910Q547 976 635 1016T831 1056Q949 1056 1038 1005T1179 862T1230 648V0H923V583Q923 693 866 754T708 816Q640 816 591 789T515 714T488 606V0H181Z" />
<glyph unicode="i" horiz-adv-x="668" d="M180 0V1024H487V0H180ZM334 1237Q284 1237 243 1261T176 1328T151 1420Q151 1470 176 1511T242 1576T334 1601Q384 1601 425 1577T490 1511T515 1420Q515 1370 491 1328T425 1262T334 1237Z" />
<glyph unicode="j" horiz-adv-x="669" d="M135 -550Q68 -550 -4 -534T-120 -489L-26 -242Q21 -275 72 -275Q181 -275 181 -119V1024H488V-173Q488 -348 395 -449T135 -550ZM334 1238Q285 1238 243 1262T177 1328T152 1420Q152 1470 176 1511T243 1577T335 1602Q384
1602 425 1578T491 1512T516 1421Q516 1371 492 1329T426 1263T334 1238Z" />
<glyph unicode="k" horiz-adv-x="1295" d="M181 0V1720H488V650L866 1024H1264L763 522L1287 0H893L488 405V0H181Z" />
<glyph unicode="l" horiz-adv-x="668" d="M181 0V1720H488V0H181Z" />
<glyph unicode="m" horiz-adv-x="2054" d="M181 0V1024H488V910Q564 986 639 1021T801 1056Q919 1056 1014 1003T1150 861Q1225 958 1311 1007T1508 1056Q1619 1056 1705 1010T1840 880T1890 680V0H1583V596Q1583 696 1531 753T1392 811Q1332 811 1287 786T1215
719T1189 626V0H882V602Q882 697 832 754T692 811Q633 811 587 786T514 718T488 623V0H181Z" />
<glyph unicode="n" horiz-adv-x="1390" d="M181 0V1024H488V910Q547 976 635 1016T831 1056Q949 1056 1038 1005T1179 862T1230 648V0H923V583Q923 693 866 754T708 816Q640 816 591 789T515 714T488 606V0H181Z" />
<glyph unicode="o" horiz-adv-x="1383" d="M691 -32Q522 -32 386 37T170 229T90 512Q90 672 169 794T385 986T691 1056Q861 1056 997 987T1212 795T1292 512Q1292 352 1213 230T997 38T691 -32ZM692 230Q770 230 834 266T935 365T972 512Q972 595 935 658T834
758T692 794Q613 794 550 758T449 659T412 512Q412 429 449 366T549 266T692 230Z" />
<glyph unicode="p" horiz-adv-x="1454" d="M181 -520V1024H488V899Q550 974 642 1015T840 1056Q988 1056 1103 985T1285 791T1352 512Q1352 358 1286 235T1106 40T847 -32Q742 -32 649 11T488 135V-520H181ZM756 229Q836 229 897 265T994 365T1029 511Q1029 593
993 657T896 758T756 795Q677 795 615 758T516 658T480 511Q480 430 515 366T614 266T756 229Z" />
<glyph unicode="q" horiz-adv-x="1453" d="M966 -520V135Q897 55 804 12T606 -32Q462 -32 348 39T167 234T101 512Q101 668 167 791T350 985T613 1056Q720 1056 811 1015T966 899V1024H1273V-520H966ZM698 229Q778 229 840 265T937 365T973 511Q973 593 938 657T840
758T698 795Q620 795 558 758T460 658T424 512Q424 429 459 366T556 266T698 229Z" />
<glyph unicode="r" horiz-adv-x="1003" d="M181 0V1024H488V877Q545 963 627 1009T805 1056Q859 1056 917 1040T1014 999L886 740Q852 763 807 776T722 790Q662 790 608 759T521 679T488 572V0H181Z" />
<glyph unicode="s" horiz-adv-x="1024" d="M471 -32Q341 -32 239 9T68 129L197 335Q261 267 331 231T471 195Q510 195 538 208T583 245T600 305Q600 345 578 368T509 410T390 460Q328 486 271 519T179 603T143 732Q143 827 196 899T342 1013T558 1054Q634 1054
717 1031T896 961L791 764Q662 847 560 847Q503 847 469 822T435 759Q435 723 470 697T557 650T656 612Q733 584 792 550T886 462T920 316Q920 205 867 128T713 9T471 -32Z" />
<glyph unicode="t" horiz-adv-x="861" d="M534 -32Q381 -32 296 65T211 338V791H74V1024H211V1408H518V1024H743V791H518V360Q518 302 541 272T608 242Q656 242 700 274L777 28Q725 0 661 -16T534 -32Z" />
<glyph unicode="u" horiz-adv-x="1367" d="M683 -32Q403 -32 279 79T155 442V1024H462V514Q462 352 512 285T683 218Q805 218 854 285T904 514V1024H1211V442Q1211 190 1088 79T683 -32Z" />
<glyph unicode="v" horiz-adv-x="1255" d="M525 0L-13 1024H349L628 406L907 1024H1269L730 0H525Z" />
<glyph unicode="w" horiz-adv-x="1973" d="M525 0L-13 1024H338L618 409L882 1024H1091L1355 409L1635 1024H1986L1448 0H1242L986 591L730 0H525Z" />
<glyph unicode="x" horiz-adv-x="1230" d="M-9 0L428 535L53 1024H409L615 749L821 1024H1177L802 535L1239 0H871L615 324L359 0H-9Z" />
<glyph unicode="y" horiz-adv-x="1261" d="M139 -520L470 128L-17 1024H335L649 424L921 1024H1273L490 -520H139Z" />
<glyph unicode="z" horiz-adv-x="1187" d="M42 0L608 790H125V1024H1125L559 234H1090V0H42Z" />
<glyph unicode="{" horiz-adv-x="788" d="M538 -520Q442 -520 380 -488T283 -402T234 -284T220 -158V395Q220 461 186 489T91 518V682Q151 682 185 711T220 805V1358Q220 1420 234 1484T283 1601T380 1687T538 1720H704V1497H632Q566 1497 526 1452T485 1333V792Q485
715 454 670T378 600Q423 576 454 530T485 408V-133Q485 -207 525 -252T632 -297H704V-520H538Z" />
<glyph unicode="|" horiz-adv-x="806" d="M270 0V1720H536V0H270Z" />
<glyph unicode="}" horiz-adv-x="788" d="M84 -520V-297H156Q222 -297 262 -252T303 -133V408Q303 483 334 529T411 600Q366 624 335 669T303 792V1333Q303 1407 263 1452T156 1497H84V1720H251Q347 1720 409 1688T506 1602T555 1484T569 1358V805Q569 740 603
711T698 682V518Q638 518 604 490T569 395V-158Q569 -220 555 -284T506 -401T409 -487T251 -520H84Z" />
<glyph unicode="~" horiz-adv-x="1476" d="M944 622Q881 622 824 647T713 706T610 765T516 791Q459 791 412 748T337 635L176 778Q210 847 266 905T391 999T529 1035Q592 1035 649 1009T760 950T862 891T956 865Q1009 865 1057 906T1135 1020L1297 878Q1262 810
1206 752T1083 658T944 622Z" />
<glyph unicode="&#xa0;" horiz-adv-x="539" />
<glyph unicode="&#xa1;" horiz-adv-x="781" d="M237 -522L278 692H502L543 -522H237ZM388 830Q333 830 288 857T216 929T189 1030Q189 1086 216 1131T288 1203T388 1230Q444 1230 489 1203T561 1131T588 1030Q588 974 561 929T489 857T388 830Z" />
<glyph unicode="&#xa2;" horiz-adv-x="1207" d="M601 -258V-19Q468 5 364 81T199 270T139 512Q139 631 190 736T332 917T543 1028V1272H730V1054Q826 1051 908 1026T1049 955L948 748Q911 777 858 792T748 808Q661 808 597 771T497 668T461 515Q461 426 497 359T599
254T749 216Q804 216 858 232T948 276L1049 68Q999 31 931 7T789 -26V-258H601Z" />
<glyph unicode="&#xa3;" horiz-adv-x="1596" d="M1119 -30Q1042 -30 971 -11T834 34T706 78T589 98Q551 98 522 87T477 54T457 0H192Q190 92 227 166T332 284T483 331Q497 355 505 391T513 466Q513 502 504 532T480 588H181V760H403Q353 841 321 936T288 1144Q288
1309 358 1429T552 1616T843 1682Q989 1682 1101 1632T1288 1495T1392 1294L1128 1164Q1110 1236 1074 1292T981 1380T838 1413Q760 1413 705 1383T621 1296T592 1156Q592 1097 606 1033T647 901T706 760H1095V588H751Q764 560 771 530T778 464Q778 426 769 386T739
304Q779 299 821 285T907 257T993 231T1076 220Q1131 220 1167 240T1223 297T1251 386L1490 268Q1474 179 1424 112T1297 7T1119 -30Z" />
<glyph unicode="&#xa4;" horiz-adv-x="1234" d="M203 97L96 204L236 343Q196 401 173 470T149 619Q149 698 172 768T236 895L96 1034L203 1141L341 1002Q399 1044 469 1067T618 1090Q696 1090 766 1067T894 1002L1033 1141L1138 1034L999 895Q1040 838 1063 768T1086
619Q1086 540 1063 470T999 342L1138 204L1033 97L894 236Q837 194 767 171T618 148Q539 148 469 171T341 237L203 97ZM618 405Q680 405 728 432T806 508T835 619Q835 682 806 730T729 806T618 833Q555 833 507 806T430 731T401 619Q401 557 429 509T506 433T618
405Z" />
<glyph unicode="&#xa5;" horiz-adv-x="1723" d="M700 0V243H282V473H700V621H282V851H621L101 1650H492L861 1065L1232 1650H1622L1101 851H1441V621H1024V473H1441V243H1024V0H700Z" />
<glyph unicode="&#xa6;" horiz-adv-x="806" d="M270 1056V1720H536V1056H270ZM270 0V664H536V0H270Z" />
<glyph unicode="&#xa7;" horiz-adv-x="1447" d="M701 -550Q571 -550 476 -516T315 -426T210 -304T155 -172L433 -111Q451 -161 486 -202T575 -268T698 -293Q762 -293 805 -272T870 -215T892 -136Q892 -80 848 -39T730 37T564 114Q493 148 423 191T294 290T203
415T174 572Q180 682 249 770T446 911Q347 973 297 1058T247 1253Q247 1371 302 1468T468 1622T737 1680Q854 1680 938 1651T1078 1572T1168 1462T1217 1340L939 1280Q929 1335 881 1379T750 1423Q699 1423 662 1404T604 1352T583 1278Q583 1233 613 1197T692 1130T795
1075T898 1029Q972 994 1046 950T1180 851T1274 725T1306 568Q1301 458 1233 370T1039 229Q1131 166 1181 81T1232 -119Q1232 -259 1161 -355T969 -501T701 -550ZM838 347Q875 359 913 382T977 439T1003 516Q1003 556 978 591T896 663T741 744Q720 753 700 762T647
786Q606 775 567 754T502 700T476 622Q476 584 495 553T553 493T652 435Q695 413 728 397T787 370T838 347Z" />
<glyph unicode="&#xa8;" horiz-adv-x="797" d="M634 1236Q567 1236 520 1283T472 1398Q472 1466 519 1513T634 1560Q702 1560 749 1513T797 1398Q797 1331 750 1284T634 1236ZM162 1236Q95 1236 48 1283T0 1398Q0 1466 47 1513T162 1560Q230 1560 277 1513T325
1398Q325 1331 278 1284T162 1236Z" />
<glyph unicode="&#xa9;" horiz-adv-x="1986" d="M993 -30Q817 -30 663 36T392 219T208 492T142 825Q142 1002 208 1156T390 1428T661 1613T992 1680Q1169 1680 1323 1614T1595 1429T1778 1156T1845 824Q1845 647 1779 492T1596 220T1325 36T993 -30ZM993 170Q1128
170 1246 220T1454 361T1594 569T1645 824Q1645 960 1595 1079T1454 1288T1246 1430T992 1481Q858 1481 741 1430T534 1289T394 1079T343 824Q343 688 393 570T533 361T740 221T993 170ZM1031 394Q908 394 805 452T640 608T578 826Q578 945 639 1044T804 1203T1036
1264Q1111 1264 1183 1243T1304 1187L1226 1030Q1162 1073 1073 1073Q1003 1073 948 1041T860 953T827 827Q827 759 858 704T946 616T1075 584Q1117 584 1159 595T1225 625L1303 468Q1163 394 1031 394Z" />
<glyph unicode="&#xaa;" horiz-adv-x="1079" d="M460 1008Q373 1008 303 1052T191 1172T149 1345Q149 1438 189 1514T301 1635T467 1680Q532 1680 588 1655T682 1583V1660H872V1028H682V1112Q646 1067 589 1038T460 1008ZM517 1169Q567 1169 605 1192T665 1254T687
1344Q687 1422 639 1470T518 1519Q470 1519 432 1497T371 1435T348 1343Q348 1294 369 1255T429 1192T517 1169Z" />
<glyph unicode="&#xab;" horiz-adv-x="1204" d="M764 58L374 558L764 1058L927 929L636 558L927 185L764 58ZM643 58L253 558L643 1058L807 929L516 558L807 185L643 58Z" />
<glyph unicode="&#xac;" horiz-adv-x="1341" d="M918 316V697H157V962H1184V316H918Z" />
<glyph unicode="&#xad;" horiz-adv-x="1005" d="M181 447V711H825V447H181Z" />
<glyph unicode="&#xae;" horiz-adv-x="1271" d="M635 780Q511 780 408 841T244 1004T183 1230Q183 1354 243 1457T406 1622T635 1684Q759 1684 861 1623T1025 1459T1087 1231Q1087 1105 1025 1003T861 840T635 780ZM635 890Q728 890 805 934T930 1057T977 1230Q977
1326 931 1404T806 1528T635 1574Q539 1574 462 1527T340 1402T294 1230Q294 1137 340 1060T464 936T635 890ZM498 1007V1459H643Q708 1459 751 1426T794 1323Q794 1270 766 1236T693 1189L841 1007H727L596 1181H588V1007H498ZM588 1254H615Q649 1254 674 1269T699
1321Q699 1360 673 1373T615 1387H588V1254Z" />
<glyph unicode="&#xaf;" horiz-adv-x="816" d="M0 1284V1493H816V1284H0Z" />
<glyph unicode="&#xb0;" horiz-adv-x="915" d="M457 1338Q359 1338 295 1396T230 1544Q230 1636 296 1693T457 1750Q554 1750 619 1693T685 1544Q685 1453 620 1396T457 1338ZM458 1443Q499 1443 527 1471T555 1544Q555 1589 526 1617T457 1645Q416 1645 388 1617T360
1544Q360 1500 387 1472T458 1443Z" />
<glyph unicode="&#xb1;" horiz-adv-x="1430" d="M582 400V738H202V1003H582V1342H848V1003H1228V738H848V400H582ZM202 0V266H1228V0H202Z" />
<glyph unicode="&#xb2;" horiz-adv-x="659" d="M62 1026V1103Q177 1187 250 1253T359 1373T394 1470Q394 1510 370 1534T308 1559Q268 1559 238 1528T185 1434L64 1494Q95 1584 157 1633T309 1682Q416 1682 483 1620T550 1462Q550 1411 527 1363T454 1263T320
1153H562V1026H62Z" />
<glyph unicode="&#xb3;" horiz-adv-x="619" d="M299 1026Q203 1026 141 1067T52 1180L184 1245Q188 1202 216 1176T291 1149Q334 1149 357 1170T381 1228Q381 1272 350 1298T274 1325Q260 1325 247 1321V1414H278Q313 1414 340 1438T368 1496Q368 1526 346 1546T290
1566Q255 1566 229 1544T196 1486L83 1541Q106 1606 159 1643T302 1680Q395 1680 453 1639T512 1522Q512 1483 494 1445T441 1378Q487 1354 511 1312T536 1217Q536 1122 468 1074T299 1026Z" />
<glyph unicode="&#xb4;" horiz-adv-x="536" d="M130 1108L0 1214L277 1655L483 1500L130 1108Z" />
<glyph unicode="&#xb5;" horiz-adv-x="1569" d="M229 -320Q229 -227 237 -145T257 21T276 202T284 422V1024H591V437Q591 329 646 269T799 208Q862 208 913 237T995 316T1027 424V1024H1334V0H1027V114Q975 48 893 8T724 -32Q681 -32 647 -19T590 19V-320H229Z" />
<glyph unicode="&#xb6;" horiz-adv-x="1573" d="M830 0V633H638Q477 633 360 705T180 895T117 1152Q117 1292 180 1404T360 1583T638 1650H1303V0H1122V1468H1012V0H830Z" />
<glyph unicode="&#xb7;" horiz-adv-x="816" d="M407 339Q351 339 306 366T234 438T207 540Q207 595 233 640T306 712T407 739Q463 739 508 713T580 641T607 540Q607 484 580 439T508 366T407 339Z" />
<glyph unicode="&#xb8;" horiz-adv-x="559" d="M291 -545Q206 -545 133 -507T0 -392L120 -303Q187 -395 285 -395Q333 -395 362 -371T391 -309Q391 -268 356 -244T264 -220Q236 -220 207 -226T163 -240L146 -227L225 14H355L310 -123Q346 -121 379 -127T438 -148Q495
-167 527 -210T559 -315Q559 -415 484 -480T291 -545Z" />
<glyph unicode="&#xb9;" horiz-adv-x="440" d="M168 1026V1511H65V1650H308V1026H168Z" />
<glyph unicode="&#xba;" horiz-adv-x="962" d="M481 1005Q377 1005 294 1048T163 1167T115 1342Q115 1442 163 1518T294 1637T481 1680Q584 1680 666 1637T797 1518T846 1342Q846 1243 798 1168T667 1049T481 1005ZM480 1165Q528 1165 565 1188T625 1251T647 1342Q647
1394 625 1434T566 1496T481 1519Q433 1519 396 1497T336 1434T314 1343Q314 1291 335 1251T395 1188T480 1165Z" />
<glyph unicode="&#xbb;" horiz-adv-x="1197" d="M264 58L100 185L391 558L100 929L264 1058L654 558L264 58ZM727 58L565 185L855 558L565 929L727 1058L1117 558L727 58Z" />
<glyph unicode="&#xbc;" horiz-adv-x="2393" d="M324 600V1406H175V1650H573V600H324ZM366 0L1386 1650H1598L577 0H366ZM1763 0V188H1180V261L1750 1050H1996V407H2133V188H1996V0H1763ZM1520 407H1763V755L1520 407Z" />
<glyph unicode="&#xbd;" horiz-adv-x="2515" d="M324 600V1406H175V1650H573V600H324ZM366 0L1386 1650H1598L577 0H366ZM1309 0V129Q1477 237 1596 325T1790 483T1900 610T1935 711Q1935 752 1911 786T1846 840T1750 860Q1700 860 1658 840T1583 778T1525 671L1316
773Q1348 871 1411 940T1564 1045T1764 1081Q1896 1081 1994 1034T2148 905T2204 722Q2204 658 2179 596T2101 472T1963 349T1760 220H2226V0H1309Z" />
<glyph unicode="&#xbe;" horiz-adv-x="2842" d="M649 579Q501 579 388 649T234 840L465 953Q472 883 520 839T649 794Q722 794 765 831T809 930Q809 974 787 1008T730 1062T650 1082Q621 1082 599 1074V1236H654Q691 1236 721 1254T770 1301T789 1364Q789 1396
770 1422T720 1464T648 1480Q608 1480 573 1464T515 1419T483 1352L287 1447Q309 1518 362 1570T489 1651T652 1680Q759 1680 841 1639T969 1527T1015 1368Q1015 1310 990 1261T916 1172Q986 1130 1022 1068T1058 929Q1058 830 1006 751T862 626T649 579ZM815 0L1835
1650H2047L1026 0H815ZM2212 0V188H1629V261L2199 1050H2445V407H2582V188H2445V0H2212ZM1969 407H2212V755L1969 407Z" />
<glyph unicode="&#xbf;" horiz-adv-x="1216" d="M634 -550Q476 -550 353 -482T159 -301T88 -53Q88 69 143 172T293 343T502 431V618H786V162Q764 168 733 171T665 175Q576 175 512 149T412 72T377 -53Q377 -122 409 -173T500 -251T640 -278Q751 -278 823 -224T911
-68L1165 -121Q1143 -254 1068 -350T880 -498T634 -550ZM645 762Q589 762 544 789T472 861T445 962Q445 1018 471 1063T543 1135T645 1162Q700 1162 745 1135T818 1063T845 962Q845 906 818 861T746 789T645 762Z" />
<glyph unicode="&#xc0;" horiz-adv-x="1665" d="M19 0L682 1650H983L1645 0H1296L1156 376H508L368 0H19ZM619 660H1046L832 1213L619 660ZM927 1734L574 2126L780 2281L1057 1840L927 1734Z" />
<glyph unicode="&#xc1;" horiz-adv-x="1665" d="M19 0L682 1650H983L1645 0H1296L1156 376H508L368 0H19ZM619 660H1046L832 1213L619 660ZM783 1734L653 1840L930 2281L1136 2126L783 1734Z" />
<glyph unicode="&#xc2;" horiz-adv-x="1665" d="M19 0L682 1650H983L1645 0H1296L1156 376H508L368 0H19ZM619 660H1046L832 1213L619 660ZM526 1836L408 1994L832 2306L1256 1994L1138 1836L832 2060L526 1836Z" />
<glyph unicode="&#xc3;" horiz-adv-x="1665" d="M19 0L682 1650H983L1645 0H1296L1156 376H508L368 0H19ZM619 660H1046L832 1213L619 660ZM1037 1799Q983 1799 932 1823T830 1880T729 1937T626 1962Q557 1962 514 1915T450 1812L296 1947Q348 2051 434 2121T622
2192Q685 2192 744 2168T859 2111T962 2054T1050 2029Q1100 2029 1147 2074T1216 2179L1368 2044Q1334 1973 1277 1918T1157 1831T1037 1799Z" />
<glyph unicode="&#xc4;" horiz-adv-x="1665" d="M19 0L682 1650H983L1645 0H1296L1156 376H508L368 0H19ZM619 660H1046L832 1213L619 660ZM1068 1862Q1001 1862 954 1909T906 2024Q906 2092 953 2139T1068 2186Q1136 2186 1183 2139T1231 2024Q1231 1957 1184
1910T1068 1862ZM596 1862Q529 1862 482 1909T434 2024Q434 2092 481 2139T596 2186Q664 2186 711 2139T759 2024Q759 1957 712 1910T596 1862Z" />
<glyph unicode="&#xc5;" horiz-adv-x="1665" d="M19 0L682 1650H983L1645 0H1296L1156 376H508L368 0H19ZM619 660H1046L832 1213L619 660ZM832 1826Q749 1826 681 1860T572 1954T531 2091V2091Q531 2169 571 2229T680 2323T833 2357Q917 2357 985 2323T1093 2229T1134
2091Q1134 2014 1094 1954T985 1860T832 1826ZM832 1968Q884 1968 921 2004T958 2091Q958 2143 921 2178T832 2214Q782 2214 745 2179T707 2091V2091Q707 2040 744 2004T832 1968Z" />
<glyph unicode="&#xc6;" horiz-adv-x="2233" d="M19 0L682 1650H1580L1690 1366H1099L1255 969H1818L1927 685H1371L1530 284H2105L2214 0H1296L1156 376H508L368 0H19ZM619 660H1046L832 1212L619 660Z" />
<glyph unicode="&#xc7;" horiz-adv-x="1530" d="M968 -32Q781 -32 617 34T328 217T133 490T63 823Q63 1002 133 1157T328 1430T616 1614T966 1680Q1118 1680 1255 1637T1491 1524L1351 1249Q1284 1302 1188 1332T987 1362Q864 1362 760 1321T578 1207T457 1036T414
824Q414 710 457 612T577 441T759 327T987 286Q1092 286 1188 316T1351 399L1491 124Q1397 56 1260 12T968 -32ZM904 -591Q819 -591 746 -553T613 -438L733 -349Q800 -441 898 -441Q946 -441 975 -417T1004 -355Q1004 -314 969 -290T877 -266Q849 -266 820 -272T776
-286L759 -273L838 -32H968L923 -169Q959 -167 992 -173T1051 -194Q1108 -213 1140 -256T1172 -361Q1172 -461 1097 -526T904 -591Z" />
<glyph unicode="&#xc8;" horiz-adv-x="1314" d="M225 0V1650H1143V1366H549V969H1119V685H549V284H1143V0H225ZM776 1734L423 2126L629 2281L906 1840L776 1734Z" />
<glyph unicode="&#xc9;" horiz-adv-x="1314" d="M225 0V1650H1143V1366H549V969H1119V685H549V284H1143V0H225ZM632 1734L502 1840L779 2281L985 2126L632 1734Z" />
<glyph unicode="&#xca;" horiz-adv-x="1314" d="M225 0V1650H1143V1366H549V969H1119V685H549V284H1143V0H225ZM375 1836L257 1994L681 2306L1105 1994L987 1836L681 2060L375 1836Z" />
<glyph unicode="&#xcb;" horiz-adv-x="1314" d="M225 0V1650H1143V1366H549V969H1119V685H549V284H1143V0H225ZM916 1862Q849 1862 802 1909T754 2024Q754 2092 801 2139T916 2186Q984 2186 1031 2139T1079 2024Q1079 1957 1032 1910T916 1862ZM444 1862Q377 1862
330 1909T282 2024Q282 2092 329 2139T444 2186Q512 2186 559 2139T607 2024Q607 1957 560 1910T444 1862Z" />
<glyph unicode="&#xcc;" horiz-adv-x="775" d="M225 0V1650H549V0H225ZM482 1734L129 2126L335 2281L612 1840L482 1734Z" />
<glyph unicode="&#xcd;" horiz-adv-x="775" d="M225 0V1650H549V0H225ZM338 1734L208 1840L485 2281L691 2126L338 1734Z" />
<glyph unicode="&#xce;" horiz-adv-x="775" d="M225 0V1650H549V0H225ZM81 1836L-37 1994L387 2306L811 1994L693 1836L387 2060L81 1836Z" />
<glyph unicode="&#xcf;" horiz-adv-x="775" d="M225 0V1650H549V0H225ZM623 1862Q556 1862 509 1909T461 2024Q461 2092 508 2139T623 2186Q691 2186 738 2139T786 2024Q786 1957 739 1910T623 1862ZM151 1862Q84 1862 37 1909T-11 2024Q-11 2092 36 2139T151
2186Q219 2186 266 2139T314 2024Q314 1957 267 1910T151 1862Z" />
<glyph unicode="&#xd0;" horiz-adv-x="1656" d="M270 0V693H106V957H270V1650H723Q893 1650 1043 1589T1308 1417T1489 1156T1555 825Q1555 643 1490 493T1309 232T1044 61T723 0H270ZM593 290H686Q799 290 894 330T1059 444T1167 614T1206 824Q1206 938 1169
1035T1061 1205T896 1319T686 1360H593V957H864V693H593V290Z" />
<glyph unicode="&#xd1;" horiz-adv-x="1809" d="M225 0V1650H549L1260 540V1650H1584V0H1260L549 1110V0H225ZM1109 1799Q1055 1799 1004 1823T902 1880T801 1937T698 1962Q629 1962 586 1915T522 1812L368 1947Q420 2051 506 2121T694 2192Q757 2192 816 2168T931
2111T1034 2054T1122 2029Q1172 2029 1219 2074T1288 2179L1440 2044Q1406 1973 1349 1918T1229 1831T1109 1799Z" />
<glyph unicode="&#xd2;" horiz-adv-x="1873" d="M937 -32Q764 -32 613 34T348 217T170 490T105 824Q105 1002 169 1157T348 1430T613 1614T937 1680Q1110 1680 1261 1614T1526 1431T1704 1158T1769 824Q1769 646 1705 491T1526 218T1261 34T937 -32ZM936 280Q1042
280 1130 320T1283 433T1384 605T1420 824Q1420 943 1384 1042T1283 1215T1130 1328T936 1368Q832 1368 744 1328T590 1215T490 1043T454 824Q454 705 489 606T590 433T743 320T936 280ZM1031 1755L678 2147L884 2302L1161 1861L1031 1755Z" />
<glyph unicode="&#xd3;" horiz-adv-x="1873" d="M937 -32Q764 -32 613 34T348 217T170 490T105 824Q105 1002 169 1157T348 1430T613 1614T937 1680Q1110 1680 1261 1614T1526 1431T1704 1158T1769 824Q1769 646 1705 491T1526 218T1261 34T937 -32ZM936 280Q1042
280 1130 320T1283 433T1384 605T1420 824Q1420 943 1384 1042T1283 1215T1130 1328T936 1368Q832 1368 744 1328T590 1215T490 1043T454 824Q454 705 489 606T590 433T743 320T936 280ZM888 1755L758 1861L1035 2302L1241 2147L888 1755Z" />
<glyph unicode="&#xd4;" horiz-adv-x="1873" d="M937 -32Q764 -32 613 34T348 217T170 490T105 824Q105 1002 169 1157T348 1430T613 1614T937 1680Q1110 1680 1261 1614T1526 1431T1704 1158T1769 824Q1769 646 1705 491T1526 218T1261 34T937 -32ZM936 280Q1042
280 1130 320T1283 433T1384 605T1420 824Q1420 943 1384 1042T1283 1215T1130 1328T936 1368Q832 1368 744 1328T590 1215T490 1043T454 824Q454 705 489 606T590 433T743 320T936 280ZM631 1857L513 2015L937 2327L1361 2015L1243 1857L937 2081L631 1857Z" />
<glyph unicode="&#xd5;" horiz-adv-x="1873" d="M937 -32Q764 -32 613 34T348 217T170 490T105 824Q105 1002 169 1157T348 1430T613 1614T937 1680Q1110 1680 1261 1614T1526 1431T1704 1158T1769 824Q1769 646 1705 491T1526 218T1261 34T937 -32ZM936 280Q1042
280 1130 320T1283 433T1384 605T1420 824Q1420 943 1384 1042T1283 1215T1130 1328T936 1368Q832 1368 744 1328T590 1215T490 1043T454 824Q454 705 489 606T590 433T743 320T936 280ZM1141 1820Q1087 1820 1036 1844T934 1901T833 1958T730 1983Q661 1983 618
1936T554 1833L400 1968Q452 2072 538 2142T726 2213Q789 2213 848 2189T963 2132T1066 2075T1154 2050Q1204 2050 1251 2095T1320 2200L1472 2065Q1438 1994 1381 1939T1261 1852T1141 1820Z" />
<glyph unicode="&#xd6;" horiz-adv-x="1873" d="M937 -32Q764 -32 613 34T348 217T170 490T105 824Q105 1002 169 1157T348 1430T613 1614T937 1680Q1110 1680 1261 1614T1526 1431T1704 1158T1769 824Q1769 646 1705 491T1526 218T1261 34T937 -32ZM936 280Q1042
280 1130 320T1283 433T1384 605T1420 824Q1420 943 1384 1042T1283 1215T1130 1328T936 1368Q832 1368 744 1328T590 1215T490 1043T454 824Q454 705 489 606T590 433T743 320T936 280ZM1172 1883Q1105 1883 1058 1930T1010 2045Q1010 2113 1057 2160T1172 2207Q1240
2207 1287 2160T1335 2045Q1335 1978 1288 1931T1172 1883ZM700 1883Q633 1883 586 1930T538 2045Q538 2113 585 2160T700 2207Q768 2207 815 2160T863 2045Q863 1978 816 1931T700 1883Z" />
<glyph unicode="&#xd7;" horiz-adv-x="1294" d="M327 324L141 509L462 830L141 1151L327 1335L647 1016L967 1335L1152 1151L832 830L1152 509L966 324L647 643L327 324Z" />
<glyph unicode="&#xd8;" horiz-adv-x="1873" d="M951 -32Q778 -32 627 34T362 217T184 490T119 824Q119 1002 183 1157T362 1430T627 1614T951 1680Q1124 1680 1275 1614T1540 1431T1718 1158T1783 824Q1783 646 1719 491T1540 218T1275 34T951 -32ZM951 280Q1056
280 1144 320T1297 433T1398 605T1434 824Q1434 943 1398 1042T1298 1215T1145 1328T951 1368Q846 1368 758 1328T604 1215T503 1043T467 824Q467 705 503 606T604 433T757 320T951 280ZM428 -22L233 121L1485 1695L1680 1546L428 -22Z" />
<glyph unicode="&#xd9;" horiz-adv-x="1651" d="M825 -32Q515 -32 356 123T197 585V1650H521V678Q521 469 592 378T825 286Q986 286 1057 377T1129 678V1650H1453V585Q1453 279 1295 124T825 -32ZM921 1734L568 2126L774 2281L1051 1840L921 1734Z" />
<glyph unicode="&#xda;" horiz-adv-x="1651" d="M825 -32Q515 -32 356 123T197 585V1650H521V678Q521 469 592 378T825 286Q986 286 1057 377T1129 678V1650H1453V585Q1453 279 1295 124T825 -32ZM777 1734L647 1840L924 2281L1130 2126L777 1734Z" />
<glyph unicode="&#xdb;" horiz-adv-x="1651" d="M825 -32Q515 -32 356 123T197 585V1650H521V678Q521 469 592 378T825 286Q986 286 1057 377T1129 678V1650H1453V585Q1453 279 1295 124T825 -32ZM520 1836L402 1994L826 2306L1250 1994L1132 1836L826 2060L520 1836Z" />
<glyph unicode="&#xdc;" horiz-adv-x="1651" d="M825 -32Q515 -32 356 123T197 585V1650H521V678Q521 469 592 378T825 286Q986 286 1057 377T1129 678V1650H1453V585Q1453 279 1295 124T825 -32ZM1062 1862Q995 1862 948 1909T900 2024Q900 2092 947 2139T1062
2186Q1130 2186 1177 2139T1225 2024Q1225 1957 1178 1910T1062 1862ZM590 1862Q523 1862 476 1909T428 2024Q428 2092 475 2139T590 2186Q658 2186 705 2139T753 2024Q753 1957 706 1910T590 1862Z" />
<glyph unicode="&#xdd;" horiz-adv-x="1516" d="M596 0V735L-3 1650H387L758 1065L1129 1650H1519L920 735V0H596ZM709 1734L579 1840L856 2281L1062 2126L709 1734Z" />
<glyph unicode="&#xde;" horiz-adv-x="1416" d="M225 0V1650H549V1332H787Q1047 1332 1194 1198T1342 834Q1342 679 1274 562T1082 380T787 315H549V0H225ZM549 574H687Q784 574 852 605T957 693T994 828Q994 943 915 1008T687 1073H549V574Z" />
<glyph unicode="&#xdf;" horiz-adv-x="1379" d="M656 -32V248H722Q791 248 845 284T931 382T962 522Q962 602 931 664T846 761T722 797H656V1031H722Q783 1031 830 1062T905 1146T933 1266Q933 1331 906 1382T831 1462T723 1492Q667 1492 624 1464T557 1386T533
1267V0H227V667H95V903H227V1256Q227 1397 292 1508T471 1685T727 1750Q867 1750 979 1687T1157 1516T1222 1273Q1222 1156 1168 1066T1010 920Q1099 881 1160 820T1254 678T1286 501Q1286 349 1214 230T1014 41T722 -32H656Z" />
<glyph unicode="&#xe0;" horiz-adv-x="1453" d="M608 -32Q467 -32 352 38T169 232T101 514Q101 668 166 790T345 984T608 1056Q717 1056 811 1015T966 899V1024H1273V0H966V135Q896 54 805 11T608 -32ZM699 229Q779 229 841 265T938 366T973 512Q973 595 938 658T841
758T699 795Q620 795 558 759T460 658T424 512Q424 430 459 366T557 266T699 229ZM864 1140L511 1532L717 1687L994 1246L864 1140Z" />
<glyph unicode="&#xe1;" horiz-adv-x="1453" d="M608 -32Q467 -32 352 38T169 232T101 514Q101 668 166 790T345 984T608 1056Q717 1056 811 1015T966 899V1024H1273V0H966V135Q896 54 805 11T608 -32ZM699 229Q779 229 841 265T938 366T973 512Q973 595 938 658T841
758T699 795Q620 795 558 759T460 658T424 512Q424 430 459 366T557 266T699 229ZM720 1140L590 1246L867 1687L1073 1532L720 1140Z" />
<glyph unicode="&#xe2;" horiz-adv-x="1453" d="M608 -32Q467 -32 352 38T169 232T101 514Q101 668 166 790T345 984T608 1056Q717 1056 811 1015T966 899V1024H1273V0H966V135Q896 54 805 11T608 -32ZM699 229Q779 229 841 265T938 366T973 512Q973 595 938 658T841
758T699 795Q620 795 558 759T460 658T424 512Q424 430 459 366T557 266T699 229ZM463 1242L345 1400L769 1712L1193 1400L1075 1242L769 1466L463 1242Z" />
<glyph unicode="&#xe3;" horiz-adv-x="1453" d="M608 -32Q467 -32 352 38T169 232T101 514Q101 668 166 790T345 984T608 1056Q717 1056 811 1015T966 899V1024H1273V0H966V135Q896 54 805 11T608 -32ZM699 229Q779 229 841 265T938 366T973 512Q973 595 938 658T841
758T699 795Q620 795 558 759T460 658T424 512Q424 430 459 366T557 266T699 229ZM974 1205Q920 1205 869 1229T767 1286T666 1343T563 1368Q494 1368 451 1321T387 1218L233 1353Q285 1457 371 1527T559 1598Q622 1598 681 1574T796 1517T899 1460T987 1435Q1037
1435 1084 1480T1153 1585L1305 1450Q1271 1379 1214 1324T1094 1237T974 1205Z" />
<glyph unicode="&#xe4;" horiz-adv-x="1453" d="M608 -32Q467 -32 352 38T169 232T101 514Q101 668 166 790T345 984T608 1056Q717 1056 811 1015T966 899V1024H1273V0H966V135Q896 54 805 11T608 -32ZM699 229Q779 229 841 265T938 366T973 512Q973 595 938 658T841
758T699 795Q620 795 558 759T460 658T424 512Q424 430 459 366T557 266T699 229ZM1005 1268Q938 1268 891 1315T843 1430Q843 1498 890 1545T1005 1592Q1073 1592 1120 1545T1168 1430Q1168 1363 1121 1316T1005 1268ZM533 1268Q466 1268 419 1315T371 1430Q371
1498 418 1545T533 1592Q601 1592 648 1545T696 1430Q696 1363 649 1316T533 1268Z" />
<glyph unicode="&#xe5;" horiz-adv-x="1453" d="M608 -32Q467 -32 352 38T169 232T101 514Q101 668 166 790T345 984T608 1056Q717 1056 811 1015T966 899V1024H1273V0H966V135Q896 54 805 11T608 -32ZM699 229Q779 229 841 265T938 366T973 512Q973 595 938 658T841
758T699 795Q620 795 558 759T460 658T424 512Q424 430 459 366T557 266T699 229ZM769 1232Q686 1232 618 1266T509 1360T468 1497V1497Q468 1575 508 1635T617 1729T770 1763Q854 1763 922 1729T1030 1635T1071 1497Q1071 1420 1031 1360T922 1266T769 1232ZM769
1374Q821 1374 858 1410T895 1497Q895 1549 858 1584T769 1620Q719 1620 682 1585T644 1497V1497Q644 1446 681 1410T769 1374Z" />
<glyph unicode="&#xe6;" horiz-adv-x="1976" d="M472 -32Q356 -32 270 6T136 115T89 284Q89 380 138 452T275 566T476 607Q560 607 641 583T782 517V602Q782 698 711 755T527 812Q480 812 430 802T334 776T255 738L155 945Q232 1002 332 1029T546 1056Q683 1056
788 1012T952 899Q1027 972 1125 1014T1337 1056Q1495 1056 1617 989T1808 801T1879 525Q1879 514 1878 504T1876 472H1089Q1089 394 1124 336T1223 245T1373 213Q1453 213 1514 244T1634 343L1855 232Q1780 105 1649 37T1349 -32Q1222 -32 1116 12T927 144Q836
84 760 45T614 -13T472 -32ZM592 155Q648 155 693 173T766 224T793 298Q793 341 766 373T692 423T588 441Q533 441 489 424T418 375T392 302Q392 259 419 226T491 174T592 155ZM1098 637H1578Q1571 702 1540 749T1457 822T1340 848Q1273 848 1220 821T1135 747T1098
637Z" />
<glyph unicode="&#xe7;" horiz-adv-x="1064" d="M660 -32Q543 -32 440 10T257 126T133 299T88 511Q88 620 130 718T250 892T432 1012T659 1056Q758 1056 849 1028T997 956L892 749Q817 804 706 804Q611 804 545 762T445 653T410 512Q410 431 447 365T551 259T708
220Q763 220 811 235T892 275L997 68Q940 25 850 -3T660 -32ZM605 -543Q520 -543 447 -505T314 -390L434 -301Q501 -393 599 -393Q647 -393 676 -369T705 -307Q705 -266 670 -242T578 -218Q550 -218 521 -224T477 -238L460 -225L539 16H669L624 -121Q660 -119 693
-125T752 -146Q809 -165 841 -208T873 -313Q873 -413 798 -478T605 -543Z" />
<glyph unicode="&#xe8;" horiz-adv-x="1292" d="M673 -32Q507 -32 376 39T167 234T90 512Q90 626 133 725T255 898T436 1014T659 1056Q819 1056 939 990T1127 805T1195 530Q1195 517 1195 508T1191 472H406Q406 394 441 336T541 246T690 213Q770 213 831 244T950
343L1171 232Q1099 108 967 38T673 -32ZM417 642H893Q883 701 851 744T768 810T655 833Q588 833 537 810T455 744T417 642ZM753 1131L400 1523L606 1678L883 1237L753 1131Z" />
<glyph unicode="&#xe9;" horiz-adv-x="1292" d="M673 -32Q507 -32 376 39T167 234T90 512Q90 626 133 725T255 898T436 1014T659 1056Q819 1056 939 990T1127 805T1195 530Q1195 517 1195 508T1191 472H406Q406 394 441 336T541 246T690 213Q770 213 831 244T950
343L1171 232Q1099 108 967 38T673 -32ZM417 642H893Q883 701 851 744T768 810T655 833Q588 833 537 810T455 744T417 642ZM609 1131L479 1237L756 1678L962 1523L609 1131Z" />
<glyph unicode="&#xea;" horiz-adv-x="1292" d="M673 -32Q507 -32 376 39T167 234T90 512Q90 626 133 725T255 898T436 1014T659 1056Q819 1056 939 990T1127 805T1195 530Q1195 517 1195 508T1191 472H406Q406 394 441 336T541 246T690 213Q770 213 831 244T950
343L1171 232Q1099 108 967 38T673 -32ZM417 642H893Q883 701 851 744T768 810T655 833Q588 833 537 810T455 744T417 642ZM353 1233L235 1391L659 1703L1083 1391L965 1233L659 1457L353 1233Z" />
<glyph unicode="&#xeb;" horiz-adv-x="1292" d="M673 -32Q507 -32 376 39T167 234T90 512Q90 626 133 725T255 898T436 1014T659 1056Q819 1056 939 990T1127 805T1195 530Q1195 517 1195 508T1191 472H406Q406 394 441 336T541 246T690 213Q770 213 831 244T950
343L1171 232Q1099 108 967 38T673 -32ZM417 642H893Q883 701 851 744T768 810T655 833Q588 833 537 810T455 744T417 642ZM894 1259Q827 1259 780 1306T732 1421Q732 1489 779 1536T894 1583Q962 1583 1009 1536T1057 1421Q1057 1354 1010 1307T894 1259ZM422
1259Q355 1259 308 1306T260 1421Q260 1489 307 1536T422 1583Q490 1583 537 1536T585 1421Q585 1354 538 1307T422 1259Z" />
<glyph unicode="&#xec;" horiz-adv-x="668" d="M181 0V1024H488V0H181ZM429 1108L76 1500L282 1655L559 1214L429 1108Z" />
<glyph unicode="&#xed;" horiz-adv-x="668" d="M181 0V1024H488V0H181ZM285 1108L155 1214L432 1655L638 1500L285 1108Z" />
<glyph unicode="&#xee;" horiz-adv-x="668" d="M181 0V1024H488V0H181ZM284 1210L166 1368L590 1680L1014 1368L896 1210L590 1434L284 1210Z" />
<glyph unicode="&#xef;" horiz-adv-x="668" d="M181 0V1024H488V0H181ZM826 1236Q759 1236 712 1283T664 1398Q664 1466 711 1513T826 1560Q894 1560 941 1513T989 1398Q989 1331 942 1284T826 1236ZM354 1236Q287 1236 240 1283T192 1398Q192 1466 239 1513T354
1560Q422 1560 469 1513T517 1398Q517 1331 470 1284T354 1236Z" />
<glyph unicode="&#xf0;" horiz-adv-x="1421" d="M700 -32Q520 -32 384 38T170 231T93 512Q93 650 146 753T285 927T474 1032T678 1067Q730 1067 774 1046T843 988Q796 1086 729 1163T584 1298L421 1135L284 1271L413 1398Q351 1432 291 1455T183 1492L256 1750Q337
1728 432 1692T619 1605L766 1750L899 1612L788 1502Q890 1429 982 1333T1146 1114T1260 842T1302 512Q1302 354 1224 231T1010 38T700 -32ZM698 231Q779 231 842 267T942 366T978 512Q978 595 941 659T841 759T698 795Q619 795 556 759T455 659T417 512Q417 430
453 367T552 267T698 231Z" />
<glyph unicode="&#xf1;" horiz-adv-x="1390" d="M181 0V1024H488V910Q547 976 635 1016T831 1056Q949 1056 1038 1005T1179 862T1230 648V0H923V583Q923 693 866 754T708 816Q640 816 591 789T515 714T488 606V0H181ZM924 1205Q870 1205 819 1229T717 1286T616
1343T513 1368Q444 1368 401 1321T337 1218L183 1353Q235 1457 321 1527T509 1598Q572 1598 631 1574T746 1517T849 1460T937 1435Q987 1435 1034 1480T1103 1585L1255 1450Q1221 1379 1164 1324T1044 1237T924 1205Z" />
<glyph unicode="&#xf2;" horiz-adv-x="1383" d="M691 -32Q522 -32 386 37T170 229T90 512Q90 672 169 794T385 986T691 1056Q861 1056 997 987T1212 795T1292 512Q1292 352 1213 230T997 38T691 -32ZM692 230Q770 230 834 266T935 365T972 512Q972 595 935 658T834
758T692 794Q613 794 550 758T449 659T412 512Q412 429 449 366T549 266T692 230ZM786 1140L433 1532L639 1687L916 1246L786 1140Z" />
<glyph unicode="&#xf3;" horiz-adv-x="1383" d="M691 -32Q522 -32 386 37T170 229T90 512Q90 672 169 794T385 986T691 1056Q861 1056 997 987T1212 795T1292 512Q1292 352 1213 230T997 38T691 -32ZM692 230Q770 230 834 266T935 365T972 512Q972 595 935 658T834
758T692 794Q613 794 550 758T449 659T412 512Q412 429 449 366T549 266T692 230ZM642 1140L512 1246L789 1687L995 1532L642 1140Z" />
<glyph unicode="&#xf4;" horiz-adv-x="1383" d="M691 -32Q522 -32 386 37T170 229T90 512Q90 672 169 794T385 986T691 1056Q861 1056 997 987T1212 795T1292 512Q1292 352 1213 230T997 38T691 -32ZM692 230Q770 230 834 266T935 365T972 512Q972 595 935 658T834
758T692 794Q613 794 550 758T449 659T412 512Q412 429 449 366T549 266T692 230ZM386 1242L268 1400L692 1712L1116 1400L998 1242L692 1466L386 1242Z" />
<glyph unicode="&#xf5;" horiz-adv-x="1383" d="M691 -32Q522 -32 386 37T170 229T90 512Q90 672 169 794T385 986T691 1056Q861 1056 997 987T1212 795T1292 512Q1292 352 1213 230T997 38T691 -32ZM692 230Q770 230 834 266T935 365T972 512Q972 595 935 658T834
758T692 794Q613 794 550 758T449 659T412 512Q412 429 449 366T549 266T692 230ZM896 1205Q842 1205 791 1229T689 1286T588 1343T485 1368Q416 1368 373 1321T309 1218L155 1353Q207 1457 293 1527T481 1598Q544 1598 603 1574T718 1517T821 1460T909 1435Q959
1435 1006 1480T1075 1585L1227 1450Q1193 1379 1136 1324T1016 1237T896 1205Z" />
<glyph unicode="&#xf6;" horiz-adv-x="1383" d="M691 -32Q522 -32 386 37T170 229T90 512Q90 672 169 794T385 986T691 1056Q861 1056 997 987T1212 795T1292 512Q1292 352 1213 230T997 38T691 -32ZM692 230Q770 230 834 266T935 365T972 512Q972 595 935 658T834
758T692 794Q613 794 550 758T449 659T412 512Q412 429 449 366T549 266T692 230ZM927 1268Q860 1268 813 1315T765 1430Q765 1498 812 1545T927 1592Q995 1592 1042 1545T1090 1430Q1090 1363 1043 1316T927 1268ZM455 1268Q388 1268 341 1315T293 1430Q293 1498
340 1545T455 1592Q523 1592 570 1545T618 1430Q618 1363 571 1316T455 1268Z" />
<glyph unicode="&#xf7;" horiz-adv-x="1298" d="M127 697V963H1154V697H127ZM640 227Q583 227 541 269T499 373Q499 434 541 476T640 519Q699 519 740 477T782 373Q782 312 741 270T640 227ZM640 1142Q583 1142 541 1184T499 1287Q499 1349 541 1391T640 1433Q699
1433 740 1391T782 1287Q782 1226 741 1184T640 1142Z" />
<glyph unicode="&#xf8;" horiz-adv-x="1383" d="M691 -32Q522 -32 386 37T170 229T90 512Q90 672 169 794T385 986T691 1056Q861 1056 997 987T1212 795T1292 512Q1292 352 1213 230T997 38T691 -32ZM692 230Q770 230 834 266T935 365T972 512Q972 595 935 658T834
758T692 794Q613 794 550 758T449 659T412 512Q412 429 449 366T549 266T692 230ZM175 -32L1067 1056H1208L316 -32H175Z" />
<glyph unicode="&#xf9;" horiz-adv-x="1367" d="M683 -32Q403 -32 279 79T155 442V1024H462V514Q462 352 512 285T683 218Q805 218 854 285T904 514V1024H1211V442Q1211 190 1088 79T683 -32ZM779 1108L426 1500L632 1655L909 1214L779 1108Z" />
<glyph unicode="&#xfa;" horiz-adv-x="1367" d="M683 -32Q403 -32 279 79T155 442V1024H462V514Q462 352 512 285T683 218Q805 218 854 285T904 514V1024H1211V442Q1211 190 1088 79T683 -32ZM635 1108L505 1214L782 1655L988 1500L635 1108Z" />
<glyph unicode="&#xfb;" horiz-adv-x="1367" d="M683 -32Q403 -32 279 79T155 442V1024H462V514Q462 352 512 285T683 218Q805 218 854 285T904 514V1024H1211V442Q1211 190 1088 79T683 -32ZM378 1210L260 1368L684 1680L1108 1368L990 1210L684 1434L378 1210Z" />
<glyph unicode="&#xfc;" horiz-adv-x="1367" d="M683 -32Q403 -32 279 79T155 442V1024H462V514Q462 352 512 285T683 218Q805 218 854 285T904 514V1024H1211V442Q1211 190 1088 79T683 -32ZM920 1236Q853 1236 806 1283T758 1398Q758 1466 805 1513T920 1560Q988
1560 1035 1513T1083 1398Q1083 1331 1036 1284T920 1236ZM448 1236Q381 1236 334 1283T286 1398Q286 1466 333 1513T448 1560Q516 1560 563 1513T611 1398Q611 1331 564 1284T448 1236Z" />
<glyph unicode="&#xfd;" horiz-adv-x="1261" d="M139 -520L470 128L-17 1024H335L649 424L921 1024H1273L490 -520H139ZM582 1108L452 1214L729 1655L935 1500L582 1108Z" />
<glyph unicode="&#xfe;" horiz-adv-x="1454" d="M181 -520V1720H488V899Q550 973 641 1014T844 1056Q993 1056 1107 983T1287 787T1352 512Q1352 361 1287 238T1108 41T844 -32Q733 -32 641 15T488 135V-520H181ZM754 229Q836 229 898 265T994 366T1029 512Q1029
595 993 659T894 759T754 795Q678 795 616 759T517 659T480 512Q480 430 515 366T612 266T754 229Z" />
<glyph unicode="&#xff;" horiz-adv-x="1261" d="M139 -520L470 128L-17 1024H335L649 424L921 1024H1273L490 -520H139ZM867 1236Q800 1236 753 1283T705 1398Q705 1466 752 1513T867 1560Q935 1560 982 1513T1030 1398Q1030 1331 983 1284T867 1236ZM395 1236Q328
1236 281 1283T233 1398Q233 1466 280 1513T395 1560Q463 1560 510 1513T558 1398Q558 1331 511 1284T395 1236Z" />
<glyph unicode="&#x2013;" horiz-adv-x="1391" d="M181 447V711H1211V447H181Z" />
<glyph unicode="&#x2014;" horiz-adv-x="2414" d="M181 447V711H2233V447H181Z" />
<glyph unicode="&#x2018;" horiz-adv-x="662" d="M320 1027Q237 1027 187 1079T137 1223Q137 1333 209 1454T408 1680L487 1614Q462 1592 437 1551T392 1463T366 1376Q430 1361 467 1315T504 1205Q504 1127 453 1077T320 1027Z" />
<glyph unicode="&#x2019;" horiz-adv-x="660" d="M249 1028L171 1093Q195 1116 221 1157T266 1246T291 1332Q228 1348 191 1393T154 1503Q154 1582 205 1631T338 1681Q421 1681 470 1629T520 1485Q520 1375 448 1253T249 1028Z" />
<glyph unicode="&#x201a;" horiz-adv-x="756" d="M248 -299L169 -234Q193 -211 219 -170T264 -82T290 4Q226 20 189 65T152 176Q152 255 203 304T336 353Q419 353 469 301T519 157Q519 47 447 -74T248 -299Z" />
<glyph unicode="&#x201c;" horiz-adv-x="1114" d="M770 1027Q687 1027 637 1079T587 1223Q587 1333 659 1454T858 1680L936 1614Q912 1592 887 1551T842 1463T816 1376Q880 1361 917 1315T954 1205Q954 1127 903 1077T770 1027ZM319 1027Q236 1027 187 1079T137
1223Q137 1333 209 1454T407 1680L486 1614Q462 1592 437 1551T392 1463T366 1376Q430 1361 467 1315T504 1205Q504 1127 453 1077T319 1027Z" />
<glyph unicode="&#x201d;" horiz-adv-x="1110" d="M704 1028L625 1093Q649 1115 674 1156T720 1245T745 1331Q682 1347 645 1392T608 1502Q608 1581 659 1630T792 1680Q875 1680 924 1628T974 1484Q974 1374 902 1253T704 1028ZM253 1028L175 1093Q199 1115 224
1156T269 1245T295 1331Q232 1347 195 1392T157 1502Q157 1581 208 1630T341 1680Q424 1680 474 1628T524 1484Q524 1374 452 1253T253 1028Z" />
<glyph unicode="&#x201e;" horiz-adv-x="1105" d="M248 -299L170 -234Q194 -211 219 -170T265 -82T290 4Q227 20 190 65T152 176Q152 255 203 304T337 353Q420 353 469 301T519 157Q519 47 447 -74T248 -299ZM699 -299L620 -234Q644 -211 670 -170T715 -82T741
4Q677 20 640 65T603 176Q603 255 654 304T787 353Q870 353 920 301T970 157Q970 47 898 -74T699 -299Z" />
<glyph unicode="&#x2022;" horiz-adv-x="1028" d="M513 377Q419 377 342 422T220 543T175 714Q175 808 220 884T342 1006T513 1051Q607 1051 683 1006T805 885T850 714Q850 620 805 544T684 422T513 377Z" />
<glyph unicode="&#x2039;" horiz-adv-x="736" d="M469 58L79 558L469 1058L632 929L341 558L632 185L469 58Z" />
<glyph unicode="&#x203a;" horiz-adv-x="733" d="M264 58L100 185L391 558L100 929L264 1058L654 558L264 58Z" />
</font>
</defs>
</svg>
